<?xml version="1.0" encoding="UTF-8"?><svg id="Layer_2" xmlns="http://www.w3.org/2000/svg" viewBox="0 0 124 124"><defs><style>.cls-1{fill:#040404;}.cls-2{fill:#07f52c;}</style></defs><g id="Layer_6"><g><rect class="cls-1" width="124" height="124" rx="18.22" ry="18.22"/><g><circle class="cls-2" cx="62" cy="62" r="47.73"/><g><path class="cls-1" d="m75.6,41.49c0,7.61-6.19,13.81-13.79,13.81h0c-14.82.22-26.81,12.34-26.81,27.22,0,.23,0,.44.02.67-4.59-5.83-7.33-13.19-7.33-21.19,0-18.9,15.28-34.23,34.16-34.31.51,0,1.01.03,1.51.08.24.03.49.07.73.1.19.03.38.07.56.1,6.24,1.33,10.94,6.88,10.94,13.52Z"/><path class="cls-1" d="m96.31,62c0,18.9-15.28,34.23-34.16,34.31-.51,0-1.01-.03-1.51-.08-.24-.03-.49-.07-.73-.1-.2-.03-.4-.07-.58-.1-.19-.04-.39-.08-.57-.13-5.95-1.54-10.35-6.95-10.35-13.38,0-7.62,6.19-13.81,13.79-13.81h0c14.82-.23,26.81-12.34,26.81-27.22,0-.23,0-.45-.02-.68,4.59,5.83,7.33,13.19,7.33,21.19Z"/></g><g><path class="cls-2" d="m61.89,82.14c-13.25,0-23.91-11.04-27.88-15.79-2.14-2.56-2.14-6.27,0-8.83,3.97-4.75,14.63-15.79,27.88-15.79s23.91,11.04,27.88,15.79h0c2.13,2.56,2.13,6.27,0,8.82-3.97,4.75-14.63,15.79-27.88,15.79Zm-19.24-20.2c3.53,3.83,11.07,10.79,19.24,10.79s15.71-6.96,19.24-10.79c-3.53-3.83-11.07-10.79-19.24-10.79s-15.71,6.96-19.24,10.79Zm39.9,1.62s0,0,0,0c0,0,0,0,0,0Z"/><path class="cls-1" d="m81.13,61.95c-3.53,3.83-11.06,10.79-19.23,10.79s-15.71-6.96-19.24-10.79c3.53-3.84,11.07-10.79,19.24-10.79s15.7,6.95,19.23,10.79Z"/><g><circle class="cls-2" cx="62.09" cy="62.14" r="6.96"/><circle class="cls-1" cx="57.39" cy="57.44" r="2.66"/></g></g></g></g></g></svg>