<?xml version="1.0" encoding="UTF-8"?><svg id="Layer_2" xmlns="http://www.w3.org/2000/svg" viewBox="0 0 124 124"><defs><style>.cls-1{fill:#f5f5f5;}.cls-2{fill:#040404;}</style></defs><g id="Layer_3"><g><g><circle class="cls-2" cx="62" cy="62" r="62"/><path class="cls-1" d="m62,7.44c30.08,0,54.56,24.48,54.56,54.56s-24.48,54.56-54.56,54.56S7.44,92.08,7.44,62,31.92,7.44,62,7.44m0-7.44C27.76,0,0,27.76,0,62s27.76,62,62,62,62-27.76,62-62S96.24,0,62,0h0Z"/></g><g><path class="cls-1" d="m79.66,35.35c0,9.89-8.04,17.94-17.92,17.94h0c-19.25.28-34.82,16.04-34.82,35.36,0,.29,0,.57.02.87-5.96-7.58-9.52-17.14-9.52-27.53,0-24.56,19.85-44.47,44.38-44.58.66,0,1.31.04,1.96.1.32.04.64.09.95.13.24.04.49.09.73.13,8.1,1.72,14.22,8.93,14.22,17.56Z"/><path class="cls-1" d="m106.58,62c0,24.56-19.85,44.47-44.38,44.58-.66,0-1.31-.04-1.96-.1-.32-.04-.64-.09-.95-.13-.26-.04-.51-.09-.76-.13-.24-.05-.5-.11-.75-.17-7.72-2-13.45-9.03-13.45-17.38,0-9.9,8.04-17.94,17.92-17.94h0c19.25-.29,34.82-16.04,34.82-35.36,0-.29,0-.59-.02-.88,5.96,7.58,9.52,17.14,9.52,27.53Z"/></g><g><path class="cls-2" d="m61.86,88.17c-17.21,0-31.06-14.34-36.22-20.51-2.78-3.32-2.78-8.14,0-11.46,5.16-6.17,19.01-20.51,36.22-20.51s31.06,14.34,36.22,20.51h0c2.77,3.32,2.77,8.14,0,11.46-5.16,6.17-19.01,20.51-36.22,20.51Zm-24.99-26.24c4.58,4.98,14.38,14.02,24.99,14.02s20.4-9.04,24.99-14.02c-4.59-4.98-14.38-14.02-24.99-14.02s-20.4,9.04-24.99,14.02Zm51.83,2.1s0,0,0,0c0,0,0,0,0,0Z"/><path class="cls-1" d="m86.85,61.93c-4.58,4.97-14.37,14.02-24.98,14.02s-20.41-9.04-25-14.02c4.58-4.99,14.39-14.02,25-14.02s20.4,9.03,24.98,14.02Z"/><g><circle class="cls-2" cx="62.12" cy="62.18" r="9.05"/><circle class="cls-1" cx="56.02" cy="56.08" r="3.46"/></g></g></g></g></svg>