<svg width="28" height="24" viewBox="0 0 28 24" fill="none" xmlns="http://www.w3.org/2000/svg">
<path d="M28 12C28 12.3536 27.8771 12.6928 27.6583 12.9428C27.4395 13.1929 27.1428 13.3333 26.8333 13.3333H1.16667C0.857247 13.3333 0.560501 13.1929 0.341709 12.9428C0.122917 12.6928 0 12.3536 0 12C0 11.6464 0.122917 11.3072 0.341709 11.0572C0.560501 10.8071 0.857247 10.6667 1.16667 10.6667H26.8333C27.1428 10.6667 27.4395 10.8071 27.6583 11.0572C27.8771 11.3072 28 11.6464 28 12ZM1.16667 2.66667H26.8333C27.1428 2.66667 27.4395 2.52619 27.6583 2.27614C27.8771 2.02609 28 1.68696 28 1.33333C28 0.979711 27.8771 0.640573 27.6583 0.390525C27.4395 0.140476 27.1428 0 26.8333 0H1.16667C0.857247 0 0.560501 0.140476 0.341709 0.390525C0.122917 0.640573 0 0.979711 0 1.33333C0 1.68696 0.122917 2.02609 0.341709 2.27614C0.560501 2.52619 0.857247 2.66667 1.16667 2.66667ZM26.8333 21.3333H1.16667C0.857247 21.3333 0.560501 21.4738 0.341709 21.7239C0.122917 21.9739 0 22.313 0 22.6667C0 23.0203 0.122917 23.3594 0.341709 23.6095C0.560501 23.8595 0.857247 24 1.16667 24H26.8333C27.1428 24 27.4395 23.8595 27.6583 23.6095C27.8771 23.3594 28 23.0203 28 22.6667C28 22.313 27.8771 21.9739 27.6583 21.7239C27.4395 21.4738 27.1428 21.3333 26.8333 21.3333Z" fill="#F5F5F5"/>
</svg>
