<?xml version="1.0" encoding="utf-8"?>
<!-- Generator: Adobe Illustrator 27.2.0, SVG Export Plug-In . SVG Version: 6.00 Build 0)  -->
<svg version="1.1" id="Layer_2_00000151533715129500512790000013140949977265616313_"
	 xmlns="http://www.w3.org/2000/svg" xmlns:xlink="http://www.w3.org/1999/xlink" x="0px" y="0px" viewBox="0 0 124 158.6"
	 style="enable-background:new 0 0 124 158.6;" xml:space="preserve">
<style type="text/css">
	.st0{fill:#040404;}
	.st1{fill:#4A21ED;}
	.st2{fill:#F5F5F5;}
</style>
<g id="Layer_2-2">
	<g>
		<g>
			<g>
				<path class="st0" d="M19.7,109.5h5c0,1.6,0.6,2.6,2.9,2.6s2.7-0.9,2.7-1.7c0-0.7-0.3-1.1-0.9-1.3s-2.2-0.4-3.5-0.6
					c-1.5-0.2-3.3-0.6-4.4-1.3c-1.1-0.7-1.8-2-1.8-3.7c0-3.4,2.8-5.8,8.1-5.8c6,0,7.8,2.3,7.8,6.2h-4.9c0-1.6-0.8-2.5-2.7-2.5
					s-2.6,0.7-2.6,1.6c0,0.7,0.2,1.1,0.8,1.3c0.6,0.2,2.1,0.5,3.6,0.7c2,0.3,3.4,0.6,4.4,1.2c1.3,0.7,2,2,2,3.7
					c0,3.1-1.7,5.9-8.4,5.9S19.7,112.7,19.7,109.5L19.7,109.5z"/>
				<path class="st0" d="M38.8,110.9v-4.6H37v-4h1.4c0.7,0,1-0.3,1.1-1.3l0.2-1.7h4.4v3H48v4h-3.9v4.1c0,1.1,0.5,1.4,2,1.4
					c0.6,0,1.4-0.1,1.7-0.2v3.8c-0.4,0.1-1.6,0.3-3,0.3C40.4,115.8,38.8,113.9,38.8,110.9L38.8,110.9z"/>
				<path class="st0" d="M49.3,110.3v-8h5.3v6.9c0,1.4,0.7,2.1,2,2.1c1.6,0,2.6-1.1,2.6-3.3v-5.7h5.3v13.2h-5.3
					c0.1-0.9,0.2-2.1,0.2-3.5h0c-0.6,2.4-2.2,3.7-4.8,3.7C51.2,115.8,49.3,114,49.3,110.3L49.3,110.3z"/>
				<path class="st0" d="M65.9,108.8c0-4.1,2.4-6.7,6-6.7c2.1,0,3.4,0.8,4,1.9h0v-7h5.3v18.5h-5.3c0.1-0.5,0.1-1.5,0.2-2.8H76
					c-0.5,1.7-1.8,3-4.3,3C68,115.8,65.9,113.1,65.9,108.8z M75.9,109.1v-0.8c0-1.4-1-2.4-2.4-2.4s-2.3,1.1-2.3,3s0.9,3.1,2.3,3.1
					S75.9,110.9,75.9,109.1L75.9,109.1z"/>
				<path class="st0" d="M82.9,97.5h5.3v3.6h-5.3V97.5z M82.9,102.3h5.3v13.2h-5.3V102.3z"/>
				<path class="st0" d="M89.2,109c0-4.1,2.7-6.8,7.6-6.8s7.6,2.7,7.6,6.8s-2.6,6.8-7.6,6.8S89.2,113.1,89.2,109z M99.1,109
					c0-2-0.8-3.1-2.3-3.1s-2.3,1.1-2.3,3.1s0.8,3,2.3,3S99.1,110.9,99.1,109z"/>
			</g>
			<g>
				<path class="st0" d="M0,136.8c0-8.3,5.7-13.5,14.6-13.5s14.6,5.1,14.6,13.5s-5.6,13.7-14.6,13.7S0,145.5,0,136.8z M20.2,136.9
					c0-4.6-2.5-6.9-5.6-6.9s-5.6,2.3-5.6,6.9s2.4,7.1,5.6,7.1S20.2,141.7,20.2,136.9z"/>
				<path class="st0" d="M31.3,130.3h7.9l-0.2,5.5H39c0.8-3.5,2.7-5.9,6.5-5.9c4.2,0,6.2,2.6,6.2,7.9c0,1.4-0.1,3.4-0.2,4.6h-6.8
					c0.1-0.9,0.1-2,0.1-2.6c0-2.3-0.8-3.2-2.3-3.2c-2,0-3.2,1.6-3.2,5.2v8.3h-7.9L31.3,130.3L31.3,130.3z"/>
				<path class="st0" d="M61.6,146.3L61.6,146.3c0,1.2,0.1,2.8,0.2,3.8h-7.9v-27.8h7.9v7.9c0,1-0.1,2.7-0.1,3.6h0.1
					c0.8-2.4,3.1-3.9,6.5-3.9c5.4,0,8.6,3.5,8.6,9.8c0,7-3.4,10.6-8.6,10.6C64.6,150.5,62.4,148.8,61.6,146.3L61.6,146.3z
					 M68.9,140.1c0-2.8-1.2-4.4-3.3-4.4c-2.4,0-3.8,1.5-3.8,4.4v1c0.1,2.4,1.5,3.7,3.8,3.7C67.7,144.8,68.9,143.2,68.9,140.1
					L68.9,140.1z"/>
				<path class="st0" d="M80.5,158v-5.4c0.6,0.2,1.6,0.3,2.7,0.3c1.8,0,2.5-0.7,3.2-2.7h-1.7l-7.9-19.8H86l3.9,11.9H90l3.5-11.9h7.4
					l-6.9,20.4c-1.9,5.8-4.5,7.9-9.2,7.9C82.8,158.6,81.2,158.3,80.5,158L80.5,158z"/>
				<path class="st0" d="M116.1,146.3L116.1,146.3c-0.7,2.4-2.6,4.2-6.2,4.2c-5.6,0-8.9-4-8.9-10.4c0-5.9,3.6-10,9.1-10
					c3.4,0,5.2,1.3,6.1,3.4h0v-3.1h7.9v27.7h-7.9V146.3L116.1,146.3z M116.1,140.5v-1.2c0-2.1-1.4-3.6-3.7-3.6
					c-2.1,0-3.5,1.6-3.5,4.4c0,3.1,1.4,4.7,3.4,4.7C114.6,144.8,116.1,143.2,116.1,140.5z"/>
			</g>
		</g>
		<g>
			<circle class="st1" cx="62" cy="42.4" r="42.4"/>
			<g>
				<path class="st2" d="M74.1,24.1c0,6.8-5.5,12.3-12.2,12.3l0,0C48.7,36.6,38,47.4,38,60.6c0,0.2,0,0.4,0,0.6
					C34,56,31.6,49.5,31.6,42.3c0-16.8,13.6-30.4,30.3-30.5c0.5,0,0.9,0,1.3,0.1c0.2,0,0.4,0.1,0.7,0.1c0.2,0,0.3,0.1,0.5,0.1
					C69.9,13.3,74.1,18.2,74.1,24.1L74.1,24.1z"/>
				<path class="st2" d="M92.5,42.4c0,16.8-13.6,30.4-30.3,30.5c-0.5,0-0.9,0-1.3-0.1c-0.2,0-0.4-0.1-0.7-0.1
					c-0.2,0-0.3-0.1-0.5-0.1c-0.2,0-0.3-0.1-0.5-0.1c-5.3-1.4-9.2-6.2-9.2-11.9c0-6.8,5.5-12.3,12.2-12.3l0,0
					C75.3,48.1,86,37.4,86,24.2c0-0.2,0-0.4,0-0.6C90,28.7,92.5,35.3,92.5,42.4L92.5,42.4z"/>
			</g>
			<g>
				<path class="st1" d="M61.9,60.2c-11.8,0-21.2-9.8-24.8-14c-1.9-2.3-1.9-5.6,0-7.8c3.5-4.2,13-14,24.8-14s21.2,9.8,24.8,14l0,0
					c1.9,2.3,1.9,5.6,0,7.8C83.1,50.5,73.7,60.3,61.9,60.2L61.9,60.2z M44.8,42.3c3.1,3.4,9.8,9.6,17.1,9.6s13.9-6.2,17.1-9.6
					c-3.1-3.4-9.8-9.6-17.1-9.6S48,38.9,44.8,42.3z M80.2,43.8L80.2,43.8L80.2,43.8z"/>
				<path class="st2" d="M79,42.3c-3.1,3.4-9.8,9.6-17.1,9.6s-14-6.2-17.1-9.6c3.1-3.4,9.8-9.6,17.1-9.6S75.9,38.9,79,42.3z"/>
				<g>
					<circle class="st1" cx="62.1" cy="42.5" r="6.2"/>
					<circle class="st2" cx="57.9" cy="38.3" r="2.4"/>
				</g>
			</g>
		</g>
	</g>
</g>
</svg>
