<?xml version="1.0" encoding="UTF-8"?><svg id="Layer_2" xmlns="http://www.w3.org/2000/svg" viewBox="0 0 124 158.61"><defs><style>.cls-1{fill:#f5f5f5;}.cls-2{fill:#040404;}.cls-3{fill:#07f52c;}</style></defs><g id="Layer_2-2"><g><g><g><path class="cls-1" d="m19.69,109.53h5.03c0,1.6.64,2.59,2.86,2.59s2.73-.86,2.73-1.74c0-.67-.27-1.1-.94-1.31-.67-.21-2.25-.43-3.55-.61-1.55-.21-3.34-.59-4.38-1.26-1.15-.72-1.79-1.98-1.79-3.72,0-3.45,2.75-5.8,8.13-5.8,6.01,0,7.8,2.35,7.8,6.2h-4.86c0-1.63-.83-2.51-2.7-2.51s-2.59.7-2.59,1.63c0,.7.21,1.1.75,1.34.56.24,2.14.48,3.64.72,1.95.29,3.37.61,4.38,1.15,1.28.72,1.98,1.98,1.98,3.69,0,3.13-1.74,5.91-8.42,5.91s-8.05-3.1-8.05-6.28Z"/><path class="cls-1" d="m38.83,110.89v-4.57h-1.82v-3.98h1.44c.72,0,1.04-.35,1.12-1.31l.19-1.68h4.36v2.99h3.9v3.98h-3.9v4.06c0,1.1.51,1.44,2,1.44.61,0,1.39-.08,1.74-.16v3.8c-.4.11-1.6.29-3.05.29-4.44,0-5.99-1.87-5.99-4.86Z"/><path class="cls-1" d="m49.28,110.33v-7.99h5.29v6.9c0,1.42.72,2.11,2,2.11,1.63,0,2.57-1.1,2.57-3.34v-5.67h5.29v13.2h-5.29c.08-.86.16-2.09.19-3.53h-.05c-.56,2.38-2.19,3.74-4.78,3.74-3.34,0-5.21-1.79-5.21-5.43Z"/><path class="cls-1" d="m65.87,108.83c0-4.14,2.38-6.71,6.04-6.71,2.14,0,3.42.75,3.98,1.92h.03v-7.03h5.29v18.52h-5.29c.05-.48.11-1.5.16-2.75h-.05c-.51,1.68-1.84,2.97-4.28,2.97-3.71,0-5.88-2.65-5.88-6.92Zm10.05.24v-.78c-.03-1.42-.99-2.41-2.43-2.41s-2.35,1.1-2.35,2.99.88,3.1,2.3,3.1,2.49-1.04,2.49-2.91Z"/><path class="cls-1" d="m82.95,97.53h5.32v3.61h-5.32v-3.61Zm0,4.81h5.29v13.2h-5.29v-13.2Z"/><path class="cls-1" d="m89.21,108.97c0-4.14,2.65-6.84,7.59-6.84s7.56,2.7,7.56,6.84-2.62,6.79-7.56,6.79-7.59-2.67-7.59-6.79Zm9.86,0c0-2-.8-3.07-2.27-3.07s-2.3,1.07-2.3,3.07.8,3.02,2.3,3.02,2.27-1.07,2.27-3.02Z"/></g><g><path class="cls-1" d="m0,136.84c0-8.34,5.73-13.47,14.55-13.47s14.55,5.13,14.55,13.47-5.61,13.71-14.55,13.71-14.55-5.05-14.55-13.71Zm20.16.04c0-4.61-2.45-6.94-5.61-6.94s-5.61,2.33-5.61,6.94,2.45,7.1,5.61,7.1,5.61-2.32,5.61-7.1Z"/><path class="cls-1" d="m31.27,130.34h7.94l-.24,5.53h.08c.8-3.53,2.69-5.85,6.49-5.85,4.17,0,6.17,2.57,6.17,7.9,0,1.44-.12,3.45-.2,4.57h-6.82c.08-.92.08-2,.08-2.61,0-2.29-.84-3.21-2.32-3.21-1.96,0-3.25,1.64-3.25,5.17v8.3h-7.94v-19.8Z"/><path class="cls-1" d="m61.62,146.34h-.04c.04,1.16.12,2.81.2,3.81h-7.94v-27.78h7.94v7.86c0,1.04-.08,2.69-.12,3.65h.08c.8-2.41,3.13-3.85,6.53-3.85,5.37,0,8.58,3.49,8.58,9.82,0,6.98-3.41,10.62-8.62,10.62-3.65,0-5.85-1.68-6.61-4.13Zm7.3-6.25c0-2.81-1.16-4.41-3.33-4.41-2.37,0-3.81,1.52-3.81,4.37v1.04c.08,2.41,1.48,3.73,3.81,3.73,2.08,0,3.33-1.6,3.33-4.73Z"/><path class="cls-1" d="m80.46,158.04v-5.45c.64.16,1.64.28,2.73.28,1.76,0,2.49-.72,3.25-2.73h-1.68l-7.86-19.8h9.1l3.93,11.87h.08l3.53-11.87h7.38l-6.86,20.41c-1.92,5.81-4.53,7.86-9.22,7.86-2,0-3.65-.32-4.37-.56Z"/><path class="cls-1" d="m116.06,146.26h-.04c-.64,2.41-2.53,4.21-6.13,4.21-5.61,0-8.9-4.01-8.9-10.42,0-5.93,3.61-10.02,9.06-10.02,3.37,0,5.25,1.28,6.05,3.41h.04v-3.09h7.86v27.74h-7.94v-11.83Zm0-5.73v-1.24c-.04-2.12-1.4-3.61-3.65-3.61-2.12,0-3.53,1.6-3.53,4.41,0,3.05,1.36,4.73,3.45,4.73,2.25,0,3.73-1.6,3.73-4.29Z"/></g></g><g><circle class="cls-3" cx="62" cy="42.36" r="42.36"/><g><path class="cls-2" d="m74.07,24.15c0,6.76-5.5,12.26-12.24,12.26h0c-13.15.19-23.79,10.96-23.79,24.16,0,.2,0,.39.02.59-4.08-5.18-6.51-11.71-6.51-18.81,0-16.78,13.56-30.38,30.32-30.46.45,0,.89.03,1.34.07.22.02.43.06.65.09.17.03.33.06.5.09,5.54,1.18,9.71,6.1,9.71,12Z"/><path class="cls-2" d="m92.46,42.36c0,16.78-13.56,30.38-30.32,30.46-.45,0-.89-.02-1.34-.07-.22-.02-.43-.06-.65-.09-.18-.03-.35-.06-.52-.09-.17-.03-.34-.08-.51-.12-5.28-1.37-9.19-6.17-9.19-11.88,0-6.76,5.5-12.26,12.24-12.26h0c13.15-.2,23.79-10.96,23.79-24.16,0-.2,0-.4-.02-.6,4.08,5.18,6.51,11.71,6.51,18.81Z"/></g><g><path class="cls-3" d="m61.9,60.24c-11.76,0-21.22-9.8-24.75-14.01-1.9-2.27-1.9-5.56,0-7.83,3.52-4.21,12.99-14.01,24.75-14.01s21.23,9.8,24.75,14.01h0c1.89,2.27,1.89,5.56,0,7.83-3.53,4.22-12.99,14.02-24.75,14.02Zm-17.07-17.93c3.13,3.4,9.83,9.58,17.07,9.58s13.94-6.18,17.08-9.58c-3.13-3.4-9.83-9.58-17.08-9.58s-13.94,6.18-17.07,9.58Zm35.41,1.44s0,0,0,0c0,0,0,0,0,0Z"/><path class="cls-2" d="m78.98,42.32c-3.13,3.4-9.82,9.58-17.07,9.58s-13.95-6.18-17.08-9.58c3.13-3.41,9.83-9.58,17.08-9.58s13.94,6.17,17.07,9.58Z"/><g><circle class="cls-3" cx="62.08" cy="42.49" r="6.18"/><circle class="cls-2" cx="57.91" cy="38.32" r="2.36"/></g></g></g></g></g></svg>