<svg width="53" height="23" viewBox="0 0 53 23" fill="none" xmlns="http://www.w3.org/2000/svg">
<rect width="53" height="23" rx="2" fill="#F5F5F5"/>
<path d="M21.7266 11.2337C21.7064 11.1894 21.2273 10.1257 20.1691 9.0675C18.7532 7.65383 16.9688 6.90625 15 6.90625C13.0313 6.90625 11.2468 7.65383 9.83261 9.0675C8.77441 10.1257 8.29534 11.1894 8.27347 11.2337C8.23642 11.3177 8.21729 11.4085 8.21729 11.5003C8.21729 11.5921 8.23642 11.6829 8.27347 11.7669C8.2937 11.8117 8.77277 12.8748 9.83152 13.933C11.2468 15.3467 13.0313 16.0938 15 16.0938C16.9688 16.0938 18.7532 15.3467 20.1669 13.933C21.2257 12.8748 21.7047 11.8117 21.725 11.7669C21.7623 11.683 21.7817 11.5923 21.782 11.5004C21.7822 11.4086 21.7634 11.3178 21.7266 11.2337ZM19.2077 13.0384C18.0335 14.1945 16.6182 14.7812 15 14.7812C13.3818 14.7812 11.9665 14.1945 10.794 13.0378C10.3326 12.5813 9.93577 12.0639 9.61441 11.5C9.93587 10.9363 10.3327 10.4191 10.794 9.96273C11.9671 8.80555 13.3818 8.21875 15 8.21875C16.6182 8.21875 18.033 8.80555 19.206 9.96273C19.6674 10.4191 20.0642 10.9363 20.3857 11.5C20.0642 12.0639 19.6674 12.5813 19.206 13.0378L19.2077 13.0384ZM15 9.09375C14.5241 9.09375 14.0589 9.23487 13.6632 9.49928C13.2675 9.76368 12.9591 10.1395 12.7769 10.5792C12.5948 11.0189 12.5472 11.5027 12.64 11.9694C12.7329 12.4362 12.962 12.865 13.2986 13.2015C13.6351 13.538 14.0638 13.7672 14.5306 13.86C14.9974 13.9529 15.4812 13.9052 15.9209 13.7231C16.3605 13.541 16.7364 13.2325 17.0008 12.8368C17.2652 12.4411 17.4063 11.9759 17.4063 11.5C17.4056 10.862 17.1518 10.2504 16.7007 9.79932C16.2496 9.34822 15.638 9.09447 15 9.09375ZM15 12.5938C14.7837 12.5938 14.5722 12.5296 14.3924 12.4094C14.2125 12.2892 14.0723 12.1184 13.9895 11.9186C13.9068 11.7187 13.8851 11.4988 13.9273 11.2866C13.9695 11.0745 14.0737 10.8796 14.2266 10.7266C14.3796 10.5736 14.5745 10.4695 14.7867 10.4273C14.9988 10.3851 15.2187 10.4067 15.4186 10.4895C15.6184 10.5723 15.7893 10.7125 15.9095 10.8923C16.0296 11.0722 16.0938 11.2837 16.0938 11.5C16.0938 11.7901 15.9785 12.0683 15.7734 12.2734C15.5683 12.4785 15.2901 12.5938 15 12.5938Z" fill="#040404"/>
<path d="M31.2092 12.66H28.2492L27.7592 14H26.2692L28.9292 7.1H30.5592L33.2092 14H31.6992L31.2092 12.66ZM30.7392 11.39L29.7292 8.62L28.7092 11.39H30.7392ZM36.4974 7.1C36.8307 7.1 37.1407 7.16 37.4274 7.28C37.7207 7.39333 37.974 7.55333 38.1874 7.76C38.4007 7.96667 38.5674 8.21 38.6874 8.49C38.8074 8.77 38.8674 9.07333 38.8674 9.4C38.8674 9.72667 38.8074 10.03 38.6874 10.31C38.5674 10.59 38.4007 10.8333 38.1874 11.04C37.974 11.2467 37.7207 11.41 37.4274 11.53C37.1407 11.6433 36.8307 11.7 36.4974 11.7H35.3974V14H34.0174V7.1H36.4974ZM36.4674 10.4C36.7474 10.4 36.9807 10.3067 37.1674 10.12C37.354 9.92667 37.4474 9.68667 37.4474 9.4C37.4474 9.11333 37.354 8.87667 37.1674 8.69C36.9807 8.49667 36.7474 8.4 36.4674 8.4H35.3974V10.4H36.4674ZM42.2591 7.1C42.5924 7.1 42.9024 7.16 43.1891 7.28C43.4824 7.39333 43.7358 7.55333 43.9491 7.76C44.1624 7.96667 44.3291 8.21 44.4491 8.49C44.5691 8.77 44.6291 9.07333 44.6291 9.4C44.6291 9.72667 44.5691 10.03 44.4491 10.31C44.3291 10.59 44.1624 10.8333 43.9491 11.04C43.7358 11.2467 43.4824 11.41 43.1891 11.53C42.9024 11.6433 42.5924 11.7 42.2591 11.7H41.1591V14H39.7791V7.1H42.2591ZM42.2291 10.4C42.5091 10.4 42.7424 10.3067 42.9291 10.12C43.1158 9.92667 43.2091 9.68667 43.2091 9.4C43.2091 9.11333 43.1158 8.87667 42.9291 8.69C42.7424 8.49667 42.5091 8.4 42.2291 8.4H41.1591V10.4H42.2291Z" fill="#040404"/>
</svg>
