<?xml version="1.0" encoding="utf-8"?>
<!-- Generator: Adobe Illustrator 27.7.0, SVG Export Plug-In . SVG Version: 6.00 Build 0)  -->
<svg version="1.1" id="Layer_1" xmlns="http://www.w3.org/2000/svg" xmlns:xlink="http://www.w3.org/1999/xlink" x="0px" y="0px"
	 viewBox="0 0 20 15" style="enable-background:new 0 0 20 15;" xml:space="preserve">
<style type="text/css">
	.st0{fill:#F5F5F5;}
</style>
<path class="st0" d="M19.6,7.1c0-0.1-0.7-1.6-2.2-3.1c-2-2-4.6-3.1-7.4-3.1C7.2,0.9,4.6,2,2.6,4c-1.5,1.5-2.2,3-2.2,3.1
	C0.3,7.2,0.3,7.4,0.3,7.5c0,0.1,0,0.3,0.1,0.4c0,0.1,0.7,1.6,2.2,3.1c2,2,4.6,3.1,7.4,3.1c2.8,0,5.4-1.1,7.4-3.1
	c1.5-1.5,2.2-3,2.2-3.1c0.1-0.1,0.1-0.2,0.1-0.4C19.7,7.4,19.7,7.2,19.6,7.1z M16,9.7c-1.7,1.7-3.7,2.5-6,2.5c-2.3,0-4.3-0.8-6-2.5
	C3.3,9,2.8,8.3,2.3,7.5C2.8,6.7,3.3,6,4,5.3c1.7-1.7,3.7-2.5,6-2.5c2.3,0,4.3,0.8,6,2.5c0.7,0.7,1.2,1.4,1.7,2.2
	C17.2,8.3,16.7,9,16,9.7L16,9.7z M10,4.1c-0.7,0-1.3,0.2-1.9,0.6C7.5,5,7.1,5.6,6.8,6.2c-0.3,0.6-0.3,1.3-0.2,2s0.5,1.3,0.9,1.8
	c0.5,0.5,1.1,0.8,1.8,0.9c0.7,0.1,1.4,0.1,2-0.2c0.6-0.3,1.2-0.7,1.5-1.3c0.4-0.6,0.6-1.2,0.6-1.9c0-0.9-0.4-1.8-1-2.4
	C11.8,4.4,10.9,4.1,10,4.1z M10,9.1C9.7,9.1,9.4,9,9.1,8.8C8.9,8.6,8.7,8.4,8.6,8.1C8.4,7.8,8.4,7.5,8.5,7.2
	c0.1-0.3,0.2-0.6,0.4-0.8C9.1,6.2,9.4,6,9.7,6c0.3-0.1,0.6,0,0.9,0.1c0.3,0.1,0.5,0.3,0.7,0.6c0.2,0.3,0.3,0.6,0.3,0.9
	c0,0.4-0.2,0.8-0.5,1.1C10.8,8.9,10.4,9.1,10,9.1z"/>
</svg>
