<svg width="14" height="15" viewBox="0 0 14 15" fill="none" xmlns="http://www.w3.org/2000/svg">
<path d="M13.7266 7.23367C13.7064 7.18937 13.2273 6.1257 12.1691 5.0675C10.7532 3.65383 8.96878 2.90625 7.00003 2.90625C5.03128 2.90625 3.24683 3.65383 1.83261 5.0675C0.774406 6.1257 0.295344 7.18937 0.273469 7.23367C0.23642 7.31767 0.217285 7.40847 0.217285 7.50027C0.217285 7.59208 0.23642 7.68288 0.273469 7.76688C0.293703 7.81172 0.772766 8.87484 1.83152 9.93305C3.24683 11.3467 5.03128 12.0938 7.00003 12.0938C8.96878 12.0938 10.7532 11.3467 12.1669 9.93305C13.2257 8.87484 13.7047 7.81172 13.725 7.76688C13.7623 7.68299 13.7817 7.59225 13.782 7.50045C13.7822 7.40864 13.7634 7.31778 13.7266 7.23367ZM11.2077 9.03836C10.0335 10.1945 8.61823 10.7812 7.00003 10.7812C5.38183 10.7812 3.96652 10.1945 2.79402 9.03781C2.33264 8.5813 1.93577 8.06391 1.61441 7.5C1.93587 6.93631 2.33273 6.41912 2.79402 5.96273C3.96706 4.80555 5.38183 4.21875 7.00003 4.21875C8.61823 4.21875 10.033 4.80555 11.206 5.96273C11.6674 6.41908 12.0642 6.93628 12.3857 7.5C12.0642 8.06388 11.6674 8.58126 11.206 9.03781L11.2077 9.03836ZM7.00003 5.09375C6.52412 5.09375 6.0589 5.23487 5.66319 5.49928C5.26749 5.76368 4.95907 6.13948 4.77695 6.57917C4.59482 7.01885 4.54717 7.50267 4.64002 7.96944C4.73286 8.4362 4.96204 8.86496 5.29856 9.20148C5.63508 9.538 6.06383 9.76717 6.5306 9.86001C6.99736 9.95286 7.48118 9.90521 7.92086 9.72308C8.36055 9.54096 8.73635 9.23255 9.00075 8.83684C9.26516 8.44113 9.40628 7.97591 9.40628 7.5C9.40556 6.86205 9.15181 6.25043 8.70071 5.79932C8.24961 5.34822 7.63799 5.09447 7.00003 5.09375ZM7.00003 8.59375C6.78371 8.59375 6.57224 8.5296 6.39238 8.40942C6.21251 8.28924 6.07232 8.11842 5.98954 7.91856C5.90675 7.7187 5.8851 7.49879 5.9273 7.28662C5.9695 7.07445 6.07367 6.87957 6.22663 6.7266C6.3796 6.57364 6.57448 6.46947 6.78665 6.42727C6.99882 6.38506 7.21873 6.40672 7.41859 6.48951C7.61845 6.57229 7.78927 6.71248 7.90945 6.89234C8.02963 7.07221 8.09378 7.28368 8.09378 7.5C8.09378 7.79008 7.97855 8.06828 7.77343 8.2734C7.56831 8.47852 7.29011 8.59375 7.00003 8.59375Z" fill="#040404"/>
</svg>
