<svg width="86" height="23" viewBox="0 0 86 23" fill="none" xmlns="http://www.w3.org/2000/svg">
<rect width="86" height="23" rx="2" fill="#07F52C"/>
<path d="M21.7266 11.2337C21.7064 11.1894 21.2273 10.1257 20.1691 9.0675C18.7532 7.65383 16.9688 6.90625 15 6.90625C13.0313 6.90625 11.2468 7.65383 9.83261 9.0675C8.77441 10.1257 8.29534 11.1894 8.27347 11.2337C8.23642 11.3177 8.21729 11.4085 8.21729 11.5003C8.21729 11.5921 8.23642 11.6829 8.27347 11.7669C8.2937 11.8117 8.77277 12.8748 9.83152 13.933C11.2468 15.3467 13.0313 16.0938 15 16.0938C16.9688 16.0938 18.7532 15.3467 20.1669 13.933C21.2257 12.8748 21.7047 11.8117 21.725 11.7669C21.7623 11.683 21.7817 11.5923 21.782 11.5004C21.7822 11.4086 21.7634 11.3178 21.7266 11.2337ZM19.2077 13.0384C18.0335 14.1945 16.6182 14.7812 15 14.7812C13.3818 14.7812 11.9665 14.1945 10.794 13.0378C10.3326 12.5813 9.93577 12.0639 9.61441 11.5C9.93587 10.9363 10.3327 10.4191 10.794 9.96273C11.9671 8.80555 13.3818 8.21875 15 8.21875C16.6182 8.21875 18.033 8.80555 19.206 9.96273C19.6674 10.4191 20.0642 10.9363 20.3857 11.5C20.0642 12.0639 19.6674 12.5813 19.206 13.0378L19.2077 13.0384ZM15 9.09375C14.5241 9.09375 14.0589 9.23487 13.6632 9.49928C13.2675 9.76368 12.9591 10.1395 12.7769 10.5792C12.5948 11.0189 12.5472 11.5027 12.64 11.9694C12.7329 12.4362 12.962 12.865 13.2986 13.2015C13.6351 13.538 14.0638 13.7672 14.5306 13.86C14.9974 13.9529 15.4812 13.9052 15.9209 13.7231C16.3605 13.541 16.7364 13.2325 17.0008 12.8368C17.2652 12.4411 17.4063 11.9759 17.4063 11.5C17.4056 10.862 17.1518 10.2504 16.7007 9.79932C16.2496 9.34822 15.638 9.09447 15 9.09375ZM15 12.5938C14.7837 12.5938 14.5722 12.5296 14.3924 12.4094C14.2125 12.2892 14.0723 12.1184 13.9895 11.9186C13.9068 11.7187 13.8851 11.4988 13.9273 11.2866C13.9695 11.0745 14.0737 10.8796 14.2266 10.7266C14.3796 10.5736 14.5745 10.4695 14.7867 10.4273C14.9988 10.3851 15.2187 10.4067 15.4186 10.4895C15.6184 10.5723 15.7893 10.7125 15.9095 10.8923C16.0296 11.0722 16.0938 11.2837 16.0938 11.5C16.0938 11.7901 15.9785 12.0683 15.7734 12.2734C15.5683 12.4785 15.2901 12.5938 15 12.5938Z" fill="#040404"/>
<path d="M30.6957 10.33C30.869 10.39 31.0257 10.48 31.1657 10.6C31.3057 10.7133 31.4257 10.85 31.5257 11.01C31.6324 11.1633 31.7124 11.3367 31.7657 11.53C31.8257 11.7233 31.8557 11.9233 31.8557 12.13C31.8557 12.4033 31.8057 12.6567 31.7057 12.89C31.6124 13.1167 31.479 13.3133 31.3057 13.48C31.1324 13.64 30.9257 13.7667 30.6857 13.86C30.4524 13.9533 30.1957 14 29.9157 14H27.0457V7.1H29.6557C29.9157 7.1 30.1557 7.14333 30.3757 7.23C30.5957 7.31667 30.789 7.44 30.9557 7.6C31.1224 7.75333 31.2524 7.94 31.3457 8.16C31.439 8.37333 31.4857 8.60667 31.4857 8.86C31.4857 9.18 31.4124 9.47333 31.2657 9.74C31.119 10 30.929 10.1967 30.6957 10.33ZM28.3857 8.34V9.86H29.3157C29.5224 9.86 29.699 9.78667 29.8457 9.64C29.9924 9.49333 30.0657 9.31333 30.0657 9.1C30.0657 8.88667 29.9924 8.70667 29.8457 8.56C29.7057 8.41333 29.529 8.34 29.3157 8.34H28.3857ZM29.5757 12.76C29.8224 12.76 30.0257 12.6767 30.1857 12.51C30.3524 12.3433 30.4357 12.1367 30.4357 11.89C30.4357 11.65 30.3524 11.4467 30.1857 11.28C30.0257 11.1133 29.8224 11.03 29.5757 11.03H28.3857V12.76H29.5757ZM34.2684 11.54H34.1484V14H32.7684V7.1H35.1784C35.5117 7.1 35.8184 7.15667 36.0984 7.27C36.385 7.38333 36.6317 7.54333 36.8384 7.75C37.0517 7.95 37.2184 8.19 37.3384 8.47C37.4584 8.74333 37.5184 9.04 37.5184 9.36C37.5184 9.61333 37.4784 9.85333 37.3984 10.08C37.3184 10.3067 37.205 10.51 37.0584 10.69C36.9184 10.87 36.745 11.0267 36.5384 11.16C36.3384 11.2867 36.1184 11.3833 35.8784 11.45L37.6884 14H35.9684L34.2684 11.54ZM34.1484 10.34H35.1484C35.4217 10.34 35.6484 10.25 35.8284 10.07C36.0084 9.88333 36.0984 9.65 36.0984 9.37C36.0984 9.09 36.0084 8.86 35.8284 8.68C35.6484 8.49333 35.4217 8.4 35.1484 8.4H34.1484V10.34ZM42.9582 12.66H39.9982L39.5082 14H38.0182L40.6782 7.1H42.3082L44.9582 14H43.4482L42.9582 12.66ZM42.4882 11.39L41.4782 8.62L40.4582 11.39H42.4882ZM51.6864 7.1V14H50.2864L47.1464 9.47V14H45.7664V7.1H47.1664L50.3064 11.63V7.1H51.6864ZM55.7906 7.1C56.2906 7.1 56.754 7.18667 57.1806 7.36C57.614 7.53333 57.9873 7.77667 58.3006 8.09C58.6206 8.39667 58.8673 8.76 59.0406 9.18C59.2206 9.6 59.3106 10.0567 59.3106 10.55C59.3106 11.0433 59.2206 11.5 59.0406 11.92C58.8673 12.34 58.6206 12.7067 58.3006 13.02C57.9873 13.3267 57.614 13.5667 57.1806 13.74C56.754 13.9133 56.2906 14 55.7906 14H53.0906V7.1H55.7906ZM55.7606 12.7C56.0673 12.7 56.3506 12.6467 56.6106 12.54C56.8706 12.4267 57.094 12.2767 57.2806 12.09C57.474 11.8967 57.624 11.67 57.7306 11.41C57.8373 11.1433 57.8906 10.8567 57.8906 10.55C57.8906 10.2433 57.8373 9.96 57.7306 9.7C57.624 9.43333 57.474 9.20667 57.2806 9.02C57.094 8.82667 56.8706 8.67667 56.6106 8.57C56.3506 8.45667 56.0673 8.4 55.7606 8.4H54.4706V12.7H55.7606ZM60.366 7.1H61.746V14H60.366V7.1ZM69.0692 7.1V14H67.6692L64.5292 9.47V14H63.1492V7.1H64.5492L67.6892 11.63V7.1H69.0692ZM77.3434 10.12V10.6C77.3368 11.1 77.2401 11.5667 77.0534 12C76.8734 12.4267 76.6234 12.7967 76.3034 13.11C75.9834 13.4233 75.6068 13.67 75.1734 13.85C74.7401 14.03 74.2734 14.12 73.7734 14.12C73.2534 14.12 72.7701 14.03 72.3234 13.85C71.8834 13.67 71.5001 13.42 71.1734 13.1C70.8468 12.78 70.5901 12.4033 70.4034 11.97C70.2234 11.53 70.1334 11.0567 70.1334 10.55C70.1334 10.0433 70.2234 9.57333 70.4034 9.14C70.5901 8.7 70.8468 8.32 71.1734 8C71.5001 7.68 71.8834 7.43 72.3234 7.25C72.7701 7.07 73.2534 6.98 73.7734 6.98C74.1401 6.98 74.4901 7.02667 74.8234 7.12C75.1634 7.21333 75.4734 7.34667 75.7534 7.52C76.0334 7.68667 76.2801 7.88667 76.4934 8.12C76.7134 8.35333 76.8868 8.61333 77.0134 8.9H75.2834C75.0968 8.71333 74.8734 8.57 74.6134 8.47C74.3601 8.36333 74.0801 8.31 73.7734 8.31C73.4534 8.31 73.1568 8.36667 72.8834 8.48C72.6168 8.59333 72.3834 8.75 72.1834 8.95C71.9834 9.15 71.8268 9.38667 71.7134 9.66C71.6001 9.93333 71.5434 10.23 71.5434 10.55C71.5434 10.87 71.6001 11.1667 71.7134 11.44C71.8268 11.7133 71.9834 11.95 72.1834 12.15C72.3834 12.35 72.6168 12.5067 72.8834 12.62C73.1568 12.7333 73.4534 12.79 73.7734 12.79C74.0201 12.79 74.2534 12.7567 74.4734 12.69C74.7001 12.6233 74.9034 12.5267 75.0834 12.4C75.2634 12.2733 75.4168 12.1233 75.5434 11.95C75.6768 11.7767 75.7768 11.5833 75.8434 11.37H73.8534V10.12H77.3434Z" fill="#040404"/>
</svg>
