<svg width="92" height="23" viewBox="0 0 92 23" fill="none" xmlns="http://www.w3.org/2000/svg">
<rect width="92" height="23" rx="2" fill="#6AF980"/>
<path d="M21.7266 11.2337C21.7064 11.1894 21.2273 10.1257 20.1691 9.0675C18.7532 7.65383 16.9688 6.90625 15 6.90625C13.0313 6.90625 11.2468 7.65383 9.83261 9.0675C8.77441 10.1257 8.29534 11.1894 8.27347 11.2337C8.23642 11.3177 8.21729 11.4085 8.21729 11.5003C8.21729 11.5921 8.23642 11.6829 8.27347 11.7669C8.2937 11.8117 8.77277 12.8748 9.83152 13.933C11.2468 15.3467 13.0313 16.0938 15 16.0938C16.9688 16.0938 18.7532 15.3467 20.1669 13.933C21.2257 12.8748 21.7047 11.8117 21.725 11.7669C21.7623 11.683 21.7817 11.5923 21.782 11.5004C21.7822 11.4086 21.7634 11.3178 21.7266 11.2337ZM19.2077 13.0384C18.0335 14.1945 16.6182 14.7812 15 14.7812C13.3818 14.7812 11.9665 14.1945 10.794 13.0378C10.3326 12.5813 9.93577 12.0639 9.61441 11.5C9.93587 10.9363 10.3327 10.4191 10.794 9.96273C11.9671 8.80555 13.3818 8.21875 15 8.21875C16.6182 8.21875 18.033 8.80555 19.206 9.96273C19.6674 10.4191 20.0642 10.9363 20.3857 11.5C20.0642 12.0639 19.6674 12.5813 19.206 13.0378L19.2077 13.0384ZM15 9.09375C14.5241 9.09375 14.0589 9.23487 13.6632 9.49928C13.2675 9.76368 12.9591 10.1395 12.7769 10.5792C12.5948 11.0189 12.5472 11.5027 12.64 11.9694C12.7329 12.4362 12.962 12.865 13.2986 13.2015C13.6351 13.538 14.0638 13.7672 14.5306 13.86C14.9974 13.9529 15.4812 13.9052 15.9209 13.7231C16.3605 13.541 16.7364 13.2325 17.0008 12.8368C17.2652 12.4411 17.4063 11.9759 17.4063 11.5C17.4056 10.862 17.1518 10.2504 16.7007 9.79932C16.2496 9.34822 15.638 9.09447 15 9.09375ZM15 12.5938C14.7837 12.5938 14.5722 12.5296 14.3924 12.4094C14.2125 12.2892 14.0723 12.1184 13.9895 11.9186C13.9068 11.7187 13.8851 11.4988 13.9273 11.2866C13.9695 11.0745 14.0737 10.8796 14.2266 10.7266C14.3796 10.5736 14.5745 10.4695 14.7867 10.4273C14.9988 10.3851 15.2187 10.4067 15.4186 10.4895C15.6184 10.5723 15.7893 10.7125 15.9095 10.8923C16.0296 11.0722 16.0938 11.2837 16.0938 11.5C16.0938 11.7901 15.9785 12.0683 15.7734 12.2734C15.5683 12.4785 15.2901 12.5938 15 12.5938Z" fill="#040404"/>
<path d="M29.2095 14.12C28.8695 14.12 28.5528 14.0667 28.2595 13.96C27.9728 13.8467 27.7195 13.6933 27.4995 13.5C27.2862 13.3067 27.1195 13.08 26.9995 12.82C26.8795 12.5533 26.8195 12.2667 26.8195 11.96H28.2395C28.2395 12.22 28.3328 12.44 28.5195 12.62C28.7128 12.8 28.9495 12.89 29.2295 12.89C29.4962 12.89 29.7195 12.8167 29.8995 12.67C30.0795 12.5167 30.1695 12.33 30.1695 12.11C30.1695 11.85 30.0428 11.6433 29.7895 11.49C29.5428 11.3367 29.2362 11.2133 28.8695 11.12C28.6095 11.0533 28.3628 10.9633 28.1295 10.85C27.8962 10.7367 27.6895 10.5967 27.5095 10.43C27.3295 10.2567 27.1862 10.0533 27.0795 9.82C26.9728 9.58 26.9195 9.30333 26.9195 8.99C26.9195 8.70333 26.9762 8.44 27.0895 8.2C27.2095 7.95333 27.3695 7.74 27.5695 7.56C27.7762 7.38 28.0162 7.24 28.2895 7.14C28.5695 7.03333 28.8695 6.98 29.1895 6.98C29.5162 6.98 29.8195 7.03333 30.0995 7.14C30.3795 7.24 30.6228 7.38333 30.8295 7.57C31.0362 7.75667 31.1962 7.97667 31.3095 8.23C31.4295 8.48333 31.4895 8.75667 31.4895 9.05H30.0695C30.0695 8.81 29.9862 8.61 29.8195 8.45C29.6528 8.29 29.4428 8.21 29.1895 8.21C28.9495 8.21 28.7462 8.28 28.5795 8.42C28.4195 8.55333 28.3395 8.72333 28.3395 8.93C28.3395 9.18333 28.4462 9.38667 28.6595 9.54C28.8795 9.68667 29.1728 9.80667 29.5395 9.9C29.8128 9.96667 30.0728 10.0567 30.3195 10.17C30.5662 10.2767 30.7828 10.4133 30.9695 10.58C31.1562 10.74 31.3062 10.94 31.4195 11.18C31.5328 11.4133 31.5895 11.6967 31.5895 12.03C31.5895 12.33 31.5295 12.6067 31.4095 12.86C31.2895 13.1133 31.1228 13.3333 30.9095 13.52C30.6962 13.7067 30.4428 13.8533 30.1495 13.96C29.8628 14.0667 29.5495 14.12 29.2095 14.12ZM36.9529 8.4H35.1729V14H33.7929V8.4H32.0129V7.1H36.9529V8.4ZM44.0503 7.1L41.3503 11.58V14H39.9803V11.58L37.2803 7.1H38.8603L40.6803 10.18L42.5003 7.1H44.0503ZM48.6779 12.7V14H44.7479V7.1H46.1279V12.7H48.6779ZM53.7268 12.7V14H49.3768V7.1H53.7268V8.4H50.7568V9.88H53.3468V11.18H50.7568V12.7H53.7268ZM61.2468 10.12V10.6C61.2401 11.1 61.1434 11.5667 60.9568 12C60.7768 12.4267 60.5268 12.7967 60.2068 13.11C59.8868 13.4233 59.5101 13.67 59.0768 13.85C58.6434 14.03 58.1768 14.12 57.6768 14.12C57.1568 14.12 56.6734 14.03 56.2268 13.85C55.7868 13.67 55.4034 13.42 55.0768 13.1C54.7501 12.78 54.4934 12.4033 54.3068 11.97C54.1268 11.53 54.0368 11.0567 54.0368 10.55C54.0368 10.0433 54.1268 9.57333 54.3068 9.14C54.4934 8.7 54.7501 8.32 55.0768 8C55.4034 7.68 55.7868 7.43 56.2268 7.25C56.6734 7.07 57.1568 6.98 57.6768 6.98C58.0434 6.98 58.3934 7.02667 58.7268 7.12C59.0668 7.21333 59.3768 7.34667 59.6568 7.52C59.9368 7.68667 60.1834 7.88667 60.3968 8.12C60.6168 8.35333 60.7901 8.61333 60.9168 8.9H59.1868C59.0001 8.71333 58.7768 8.57 58.5168 8.47C58.2634 8.36333 57.9834 8.31 57.6768 8.31C57.3568 8.31 57.0601 8.36667 56.7868 8.48C56.5201 8.59333 56.2868 8.75 56.0868 8.95C55.8868 9.15 55.7301 9.38667 55.6168 9.66C55.5034 9.93333 55.4468 10.23 55.4468 10.55C55.4468 10.87 55.5034 11.1667 55.6168 11.44C55.7301 11.7133 55.8868 11.95 56.0868 12.15C56.2868 12.35 56.5201 12.5067 56.7868 12.62C57.0601 12.7333 57.3568 12.79 57.6768 12.79C57.9234 12.79 58.1568 12.7567 58.3768 12.69C58.6034 12.6233 58.8068 12.5267 58.9868 12.4C59.1668 12.2733 59.3201 12.1233 59.4468 11.95C59.5801 11.7767 59.6801 11.5833 59.7468 11.37H57.7568V10.12H61.2468ZM64.9876 14.12C64.581 14.12 64.201 14.05 63.8476 13.91C63.501 13.77 63.201 13.5767 62.9476 13.33C62.6943 13.0767 62.4943 12.78 62.3476 12.44C62.201 12.1 62.1276 11.73 62.1276 11.33V7.1H63.5076V11.31C63.5076 11.5167 63.5443 11.7133 63.6176 11.9C63.691 12.08 63.7943 12.2367 63.9276 12.37C64.061 12.4967 64.2176 12.6 64.3976 12.68C64.5776 12.7533 64.7743 12.79 64.9876 12.79C65.201 12.79 65.3976 12.7533 65.5776 12.68C65.7576 12.6 65.9143 12.4967 66.0476 12.37C66.181 12.2367 66.2843 12.08 66.3576 11.9C66.431 11.7133 66.4676 11.5167 66.4676 11.31V7.1H67.8476V11.33C67.8476 11.73 67.7743 12.1 67.6276 12.44C67.481 12.78 67.281 13.0767 67.0276 13.33C66.7743 13.5767 66.471 13.77 66.1176 13.91C65.771 14.05 65.3943 14.12 64.9876 14.12ZM69.1131 7.1H70.4931V14H69.1131V7.1ZM74.5963 7.1C75.0963 7.1 75.5596 7.18667 75.9863 7.36C76.4196 7.53333 76.793 7.77667 77.1063 8.09C77.4263 8.39667 77.673 8.76 77.8463 9.18C78.0263 9.6 78.1163 10.0567 78.1163 10.55C78.1163 11.0433 78.0263 11.5 77.8463 11.92C77.673 12.34 77.4263 12.7067 77.1063 13.02C76.793 13.3267 76.4196 13.5667 75.9863 13.74C75.5596 13.9133 75.0963 14 74.5963 14H71.8963V7.1H74.5963ZM74.5663 12.7C74.873 12.7 75.1563 12.6467 75.4163 12.54C75.6763 12.4267 75.8996 12.2767 76.0863 12.09C76.2796 11.8967 76.4296 11.67 76.5363 11.41C76.643 11.1433 76.6963 10.8567 76.6963 10.55C76.6963 10.2433 76.643 9.96 76.5363 9.7C76.4296 9.43333 76.2796 9.20667 76.0863 9.02C75.8996 8.82667 75.6763 8.67667 75.4163 8.57C75.1563 8.45667 74.873 8.4 74.5663 8.4H73.2763V12.7H74.5663ZM83.5217 12.7V14H79.1717V7.1H83.5217V8.4H80.5517V9.88H83.1417V11.18H80.5517V12.7H83.5217Z" fill="#040404"/>
</svg>
