<svg width="73" height="23" viewBox="0 0 73 23" fill="none" xmlns="http://www.w3.org/2000/svg">
<rect width="73" height="23" rx="2" fill="#927AF4"/>
<path d="M21.7266 11.2337C21.7064 11.1894 21.2273 10.1257 20.1691 9.0675C18.7532 7.65383 16.9688 6.90625 15 6.90625C13.0313 6.90625 11.2468 7.65383 9.83261 9.0675C8.77441 10.1257 8.29534 11.1894 8.27347 11.2337C8.23642 11.3177 8.21729 11.4085 8.21729 11.5003C8.21729 11.5921 8.23642 11.6829 8.27347 11.7669C8.2937 11.8117 8.77277 12.8748 9.83152 13.933C11.2468 15.3467 13.0313 16.0938 15 16.0938C16.9688 16.0938 18.7532 15.3467 20.1669 13.933C21.2257 12.8748 21.7047 11.8117 21.725 11.7669C21.7623 11.683 21.7817 11.5923 21.782 11.5004C21.7822 11.4086 21.7634 11.3178 21.7266 11.2337ZM19.2077 13.0384C18.0335 14.1945 16.6182 14.7812 15 14.7812C13.3818 14.7812 11.9665 14.1945 10.794 13.0378C10.3326 12.5813 9.93577 12.0639 9.61441 11.5C9.93587 10.9363 10.3327 10.4191 10.794 9.96273C11.9671 8.80555 13.3818 8.21875 15 8.21875C16.6182 8.21875 18.033 8.80555 19.206 9.96273C19.6674 10.4191 20.0642 10.9363 20.3857 11.5C20.0642 12.0639 19.6674 12.5813 19.206 13.0378L19.2077 13.0384ZM15 9.09375C14.5241 9.09375 14.0589 9.23487 13.6632 9.49928C13.2675 9.76368 12.9591 10.1395 12.7769 10.5792C12.5948 11.0189 12.5472 11.5027 12.64 11.9694C12.7329 12.4362 12.962 12.865 13.2986 13.2015C13.6351 13.538 14.0638 13.7672 14.5306 13.86C14.9974 13.9529 15.4812 13.9052 15.9209 13.7231C16.3605 13.541 16.7364 13.2325 17.0008 12.8368C17.2652 12.4411 17.4063 11.9759 17.4063 11.5C17.4056 10.862 17.1518 10.2504 16.7007 9.79932C16.2496 9.34822 15.638 9.09447 15 9.09375ZM15 12.5938C14.7837 12.5938 14.5722 12.5296 14.3924 12.4094C14.2125 12.2892 14.0723 12.1184 13.9895 11.9186C13.9068 11.7187 13.8851 11.4988 13.9273 11.2866C13.9695 11.0745 14.0737 10.8796 14.2266 10.7266C14.3796 10.5736 14.5745 10.4695 14.7867 10.4273C14.9988 10.3851 15.2187 10.4067 15.4186 10.4895C15.6184 10.5723 15.7893 10.7125 15.9095 10.8923C16.0296 11.0722 16.0938 11.2837 16.0938 11.5C16.0938 11.7901 15.9785 12.0683 15.7734 12.2734C15.5683 12.4785 15.2901 12.5938 15 12.5938Z" fill="#F5F5F5"/>
<path d="M33.0908 7.1L30.3508 14H28.9308L26.1908 7.1H27.7308L29.6608 12.17L31.5808 7.1H33.0908ZM33.8904 7.1H35.2704V14H33.8904V7.1ZM38.7036 14.12C38.3636 14.12 38.047 14.0667 37.7536 13.96C37.467 13.8467 37.2136 13.6933 36.9936 13.5C36.7803 13.3067 36.6136 13.08 36.4936 12.82C36.3736 12.5533 36.3136 12.2667 36.3136 11.96H37.7336C37.7336 12.22 37.827 12.44 38.0136 12.62C38.207 12.8 38.4436 12.89 38.7236 12.89C38.9903 12.89 39.2136 12.8167 39.3936 12.67C39.5736 12.5167 39.6636 12.33 39.6636 12.11C39.6636 11.85 39.537 11.6433 39.2836 11.49C39.037 11.3367 38.7303 11.2133 38.3636 11.12C38.1036 11.0533 37.857 10.9633 37.6236 10.85C37.3903 10.7367 37.1836 10.5967 37.0036 10.43C36.8236 10.2567 36.6803 10.0533 36.5736 9.82C36.467 9.58 36.4136 9.30333 36.4136 8.99C36.4136 8.70333 36.4703 8.44 36.5836 8.2C36.7036 7.95333 36.8636 7.74 37.0636 7.56C37.2703 7.38 37.5103 7.24 37.7836 7.14C38.0636 7.03333 38.3636 6.98 38.6836 6.98C39.0103 6.98 39.3136 7.03333 39.5936 7.14C39.8736 7.24 40.117 7.38333 40.3236 7.57C40.5303 7.75667 40.6903 7.97667 40.8036 8.23C40.9236 8.48333 40.9836 8.75667 40.9836 9.05H39.5636C39.5636 8.81 39.4803 8.61 39.3136 8.45C39.147 8.29 38.937 8.21 38.6836 8.21C38.4436 8.21 38.2403 8.28 38.0736 8.42C37.9136 8.55333 37.8336 8.72333 37.8336 8.93C37.8336 9.18333 37.9403 9.38667 38.1536 9.54C38.3736 9.68667 38.667 9.80667 39.0336 9.9C39.307 9.96667 39.567 10.0567 39.8136 10.17C40.0603 10.2767 40.277 10.4133 40.4636 10.58C40.6503 10.74 40.8003 10.94 40.9136 11.18C41.027 11.4133 41.0836 11.6967 41.0836 12.03C41.0836 12.33 41.0236 12.6067 40.9036 12.86C40.7836 13.1133 40.617 13.3333 40.4036 13.52C40.1903 13.7067 39.937 13.8533 39.6436 13.96C39.357 14.0667 39.0436 14.12 38.7036 14.12ZM44.8529 14.12C44.4462 14.12 44.0662 14.05 43.7129 13.91C43.3662 13.77 43.0662 13.5767 42.8129 13.33C42.5595 13.0767 42.3595 12.78 42.2129 12.44C42.0662 12.1 41.9929 11.73 41.9929 11.33V7.1H43.3729V11.31C43.3729 11.5167 43.4095 11.7133 43.4829 11.9C43.5562 12.08 43.6595 12.2367 43.7929 12.37C43.9262 12.4967 44.0829 12.6 44.2629 12.68C44.4429 12.7533 44.6395 12.79 44.8529 12.79C45.0662 12.79 45.2629 12.7533 45.4429 12.68C45.6229 12.6 45.7795 12.4967 45.9129 12.37C46.0462 12.2367 46.1495 12.08 46.2229 11.9C46.2962 11.7133 46.3329 11.5167 46.3329 11.31V7.1H47.7129V11.33C47.7129 11.73 47.6395 12.1 47.4929 12.44C47.3462 12.78 47.1462 13.0767 46.8929 13.33C46.6395 13.5767 46.3362 13.77 45.9829 13.91C45.6362 14.05 45.2595 14.12 44.8529 14.12ZM52.8693 12.66H49.9093L49.4193 14H47.9293L50.5893 7.1H52.2193L54.8693 14H53.3593L52.8693 12.66ZM52.3993 11.39L51.3893 8.62L50.3693 11.39H52.3993ZM59.6075 12.7V14H55.6775V7.1H57.0575V12.7H59.6075ZM62.19 14.12C61.85 14.12 61.5333 14.0667 61.24 13.96C60.9533 13.8467 60.7 13.6933 60.48 13.5C60.2666 13.3067 60.1 13.08 59.98 12.82C59.86 12.5533 59.8 12.2667 59.8 11.96H61.22C61.22 12.22 61.3133 12.44 61.5 12.62C61.6933 12.8 61.93 12.89 62.21 12.89C62.4766 12.89 62.7 12.8167 62.88 12.67C63.06 12.5167 63.15 12.33 63.15 12.11C63.15 11.85 63.0233 11.6433 62.77 11.49C62.5233 11.3367 62.2166 11.2133 61.85 11.12C61.59 11.0533 61.3433 10.9633 61.11 10.85C60.8766 10.7367 60.67 10.5967 60.49 10.43C60.31 10.2567 60.1666 10.0533 60.06 9.82C59.9533 9.58 59.9 9.30333 59.9 8.99C59.9 8.70333 59.9566 8.44 60.07 8.2C60.19 7.95333 60.35 7.74 60.55 7.56C60.7566 7.38 60.9966 7.24 61.27 7.14C61.55 7.03333 61.85 6.98 62.17 6.98C62.4966 6.98 62.8 7.03333 63.08 7.14C63.36 7.24 63.6033 7.38333 63.81 7.57C64.0166 7.75667 64.1766 7.97667 64.29 8.23C64.41 8.48333 64.47 8.75667 64.47 9.05H63.05C63.05 8.81 62.9666 8.61 62.8 8.45C62.6333 8.29 62.4233 8.21 62.17 8.21C61.93 8.21 61.7266 8.28 61.56 8.42C61.4 8.55333 61.32 8.72333 61.32 8.93C61.32 9.18333 61.4266 9.38667 61.64 9.54C61.86 9.68667 62.1533 9.80667 62.52 9.9C62.7933 9.96667 63.0533 10.0567 63.3 10.17C63.5466 10.2767 63.7633 10.4133 63.95 10.58C64.1366 10.74 64.2866 10.94 64.4 11.18C64.5133 11.4133 64.57 11.6967 64.57 12.03C64.57 12.33 64.51 12.6067 64.39 12.86C64.27 13.1133 64.1033 13.3333 63.89 13.52C63.6766 13.7067 63.4233 13.8533 63.13 13.96C62.8433 14.0667 62.53 14.12 62.19 14.12Z" fill="#F5F5F5"/>
</svg>
