<svg width="75" height="23" viewBox="0 0 75 23" fill="none" xmlns="http://www.w3.org/2000/svg">
<rect width="75" height="23" rx="2" fill="#4A21ED"/>
<path d="M21.7266 11.2337C21.7064 11.1894 21.2273 10.1257 20.1691 9.0675C18.7532 7.65383 16.9688 6.90625 15 6.90625C13.0313 6.90625 11.2468 7.65383 9.83261 9.0675C8.77441 10.1257 8.29534 11.1894 8.27347 11.2337C8.23642 11.3177 8.21729 11.4085 8.21729 11.5003C8.21729 11.5921 8.23642 11.6829 8.27347 11.7669C8.2937 11.8117 8.77277 12.8748 9.83152 13.933C11.2468 15.3467 13.0313 16.0938 15 16.0938C16.9688 16.0938 18.7532 15.3467 20.1669 13.933C21.2257 12.8748 21.7047 11.8117 21.725 11.7669C21.7623 11.683 21.7817 11.5923 21.782 11.5004C21.7822 11.4086 21.7634 11.3178 21.7266 11.2337ZM19.2077 13.0384C18.0335 14.1945 16.6182 14.7812 15 14.7812C13.3818 14.7812 11.9665 14.1945 10.794 13.0378C10.3326 12.5813 9.93577 12.0639 9.61441 11.5C9.93587 10.9363 10.3327 10.4191 10.794 9.96273C11.9671 8.80555 13.3818 8.21875 15 8.21875C16.6182 8.21875 18.033 8.80555 19.206 9.96273C19.6674 10.4191 20.0642 10.9363 20.3857 11.5C20.0642 12.0639 19.6674 12.5813 19.206 13.0378L19.2077 13.0384ZM15 9.09375C14.5241 9.09375 14.0589 9.23487 13.6632 9.49928C13.2675 9.76368 12.9591 10.1395 12.7769 10.5792C12.5948 11.0189 12.5472 11.5027 12.64 11.9694C12.7329 12.4362 12.962 12.865 13.2986 13.2015C13.6351 13.538 14.0638 13.7672 14.5306 13.86C14.9974 13.9529 15.4812 13.9052 15.9209 13.7231C16.3605 13.541 16.7364 13.2325 17.0008 12.8368C17.2652 12.4411 17.4063 11.9759 17.4063 11.5C17.4056 10.862 17.1518 10.2504 16.7007 9.79932C16.2496 9.34822 15.638 9.09447 15 9.09375ZM15 12.5938C14.7837 12.5938 14.5722 12.5296 14.3924 12.4094C14.2125 12.2892 14.0723 12.1184 13.9895 11.9186C13.9068 11.7187 13.8851 11.4988 13.9273 11.2866C13.9695 11.0745 14.0737 10.8796 14.2266 10.7266C14.3796 10.5736 14.5745 10.4695 14.7867 10.4273C14.9988 10.3851 15.2187 10.4067 15.4186 10.4895C15.6184 10.5723 15.7893 10.7125 15.9095 10.8923C16.0296 11.0722 16.0938 11.2837 16.0938 11.5C16.0938 11.7901 15.9785 12.0683 15.7734 12.2734C15.5683 12.4785 15.2901 12.5938 15 12.5938Z" fill="#F5F5F5"/>
<path d="M37.1636 7.1L34.7036 14H33.3136L31.7236 9.17L30.1236 14H28.7336L26.2836 7.1H27.8036L29.4536 12.14L31.1036 7.1H32.3636L34.0336 12.14L35.6636 7.1H37.1636ZM42.3459 12.7V14H37.9959V7.1H42.3459V8.4H39.3759V9.88H41.9659V11.18H39.3759V12.7H42.3459ZM46.6947 10.33C46.8681 10.39 47.0247 10.48 47.1647 10.6C47.3047 10.7133 47.4247 10.85 47.5247 11.01C47.6314 11.1633 47.7114 11.3367 47.7647 11.53C47.8247 11.7233 47.8547 11.9233 47.8547 12.13C47.8547 12.4033 47.8047 12.6567 47.7047 12.89C47.6114 13.1167 47.4781 13.3133 47.3047 13.48C47.1314 13.64 46.9247 13.7667 46.6847 13.86C46.4514 13.9533 46.1947 14 45.9147 14H43.0447V7.1H45.6547C45.9147 7.1 46.1547 7.14333 46.3747 7.23C46.5947 7.31667 46.7881 7.44 46.9547 7.6C47.1214 7.75333 47.2514 7.94 47.3447 8.16C47.4381 8.37333 47.4847 8.60667 47.4847 8.86C47.4847 9.18 47.4114 9.47333 47.2647 9.74C47.1181 10 46.9281 10.1967 46.6947 10.33ZM44.3847 8.34V9.86H45.3147C45.5214 9.86 45.6981 9.78667 45.8447 9.64C45.9914 9.49333 46.0647 9.31333 46.0647 9.1C46.0647 8.88667 45.9914 8.70667 45.8447 8.56C45.7047 8.41333 45.5281 8.34 45.3147 8.34H44.3847ZM45.5747 12.76C45.8214 12.76 46.0247 12.6767 46.1847 12.51C46.3514 12.3433 46.4347 12.1367 46.4347 11.89C46.4347 11.65 46.3514 11.4467 46.1847 11.28C46.0247 11.1133 45.8214 11.03 45.5747 11.03H44.3847V12.76H45.5747ZM50.8462 14.12C50.5062 14.12 50.1895 14.0667 49.8962 13.96C49.6095 13.8467 49.3562 13.6933 49.1362 13.5C48.9229 13.3067 48.7562 13.08 48.6362 12.82C48.5162 12.5533 48.4562 12.2667 48.4562 11.96H49.8762C49.8762 12.22 49.9695 12.44 50.1562 12.62C50.3495 12.8 50.5862 12.89 50.8662 12.89C51.1329 12.89 51.3562 12.8167 51.5362 12.67C51.7162 12.5167 51.8062 12.33 51.8062 12.11C51.8062 11.85 51.6795 11.6433 51.4262 11.49C51.1795 11.3367 50.8729 11.2133 50.5062 11.12C50.2462 11.0533 49.9995 10.9633 49.7662 10.85C49.5329 10.7367 49.3262 10.5967 49.1462 10.43C48.9662 10.2567 48.8229 10.0533 48.7162 9.82C48.6095 9.58 48.5562 9.30333 48.5562 8.99C48.5562 8.70333 48.6129 8.44 48.7262 8.2C48.8462 7.95333 49.0062 7.74 49.2062 7.56C49.4129 7.38 49.6529 7.24 49.9262 7.14C50.2062 7.03333 50.5062 6.98 50.8262 6.98C51.1529 6.98 51.4562 7.03333 51.7362 7.14C52.0162 7.24 52.2595 7.38333 52.4662 7.57C52.6729 7.75667 52.8329 7.97667 52.9462 8.23C53.0662 8.48333 53.1262 8.75667 53.1262 9.05H51.7062C51.7062 8.81 51.6229 8.61 51.4562 8.45C51.2895 8.29 51.0795 8.21 50.8262 8.21C50.5862 8.21 50.3829 8.28 50.2162 8.42C50.0562 8.55333 49.9762 8.72333 49.9762 8.93C49.9762 9.18333 50.0829 9.38667 50.2962 9.54C50.5162 9.68667 50.8095 9.80667 51.1762 9.9C51.4495 9.96667 51.7095 10.0567 51.9562 10.17C52.2029 10.2767 52.4195 10.4133 52.6062 10.58C52.7929 10.74 52.9429 10.94 53.0562 11.18C53.1695 11.4133 53.2262 11.6967 53.2262 12.03C53.2262 12.33 53.1662 12.6067 53.0462 12.86C52.9262 13.1133 52.7595 13.3333 52.5462 13.52C52.3329 13.7067 52.0795 13.8533 51.7862 13.96C51.4995 14.0667 51.1862 14.12 50.8462 14.12ZM54.2654 7.1H55.6454V14H54.2654V7.1ZM61.5486 8.4H59.7686V14H58.3886V8.4H56.6086V7.1H61.5486V8.4ZM66.8576 12.7V14H62.5076V7.1H66.8576V8.4H63.8876V9.88H66.4776V11.18H63.8876V12.7H66.8576Z" fill="#F5F5F5"/>
</svg>
