<svg width="640" height="150" viewBox="0 0 640 150" fill="none" xmlns="http://www.w3.org/2000/svg">
<g clip-path="url(#clip0_413_1472)">
<path d="M255.303 89.5336C254.645 88.8796 253.837 88.618 253.095 88.646C252.315 88.646 251.573 88.945 250.981 89.5336C246.687 93.8036 242.092 96.0273 235.768 96.0833C223.037 95.9619 214.984 86.5905 214.834 75.3223C214.984 64.0542 223.037 54.6827 235.768 54.5613C242.092 54.6173 246.687 56.8411 250.981 61.111C251.573 61.6996 252.324 61.9986 253.095 61.9986C253.875 62.0266 254.645 61.765 255.303 61.111L264.934 51.6835C265.892 50.7305 266.212 49.4598 265.263 48.3292C258.526 39.6959 247.758 34.2767 235.054 34.2767H234.547C210.925 34.2767 193.42 51.861 193.42 75.0233V75.6774C193.42 98.8397 210.925 116.424 234.547 116.424H235.054C247.758 116.424 258.526 110.995 265.263 102.371C266.221 101.241 265.921 99.9702 264.934 99.0172L255.303 89.5897V89.5336Z" fill="#F5F5F5"/>
<path d="M279.075 75.2943C279.075 52.132 296.58 34.2207 320.381 34.2207C344.181 34.2207 361.508 52.104 361.508 75.2943C361.508 98.4846 344.003 116.368 320.381 116.368C296.759 116.368 279.075 98.4846 279.075 75.2943ZM320.371 96.0553C331.468 96.0553 340.141 88.0761 340.141 75.2943C340.141 62.5125 331.459 54.5333 320.371 54.5333C309.284 54.5333 300.451 62.5125 300.451 75.2943C300.451 88.0761 309.133 96.0553 320.371 96.0553Z" fill="#F5F5F5"/>
<path d="M377.838 142.315V38.6682C377.838 37.276 378.975 36.1454 380.375 36.1454H396.151C397.288 36.1454 398.566 37.1826 398.566 38.5467L398.716 42.8447C398.773 44.2649 400.539 44.8348 401.46 43.7603C406.769 37.7151 414.342 34.2394 424.603 34.2394C446.609 34.2394 461.877 52.1507 461.877 75.313C461.877 98.4753 446.609 116.387 424.603 116.387C413.957 116.387 405.848 112.322 400.389 105.445C400.333 105.352 400.182 105.417 400.182 105.502V142.305C400.182 143.697 399.045 144.828 397.645 144.828H380.375C378.975 144.828 377.838 143.697 377.838 142.305V142.315ZM419.952 96.2609C431.518 96.2609 440.2 87.9546 440.2 75.3223C440.2 62.69 431.518 54.3838 419.952 54.3838C408.385 54.3838 399.881 62.69 399.881 75.3223C399.881 87.9546 408.084 96.2609 419.952 96.2609Z" fill="#F5F5F5"/>
<path d="M475.116 75.2943C475.116 52.132 492.621 34.2207 516.422 34.2207C540.222 34.2207 557.549 52.104 557.549 75.2943C557.549 98.4846 540.044 116.368 516.422 116.368C492.8 116.368 475.116 98.4846 475.116 75.2943ZM516.422 96.0553C527.519 96.0553 536.191 88.0761 536.191 75.2943C536.191 62.5125 527.509 54.5333 516.422 54.5333C505.334 54.5333 496.502 62.5125 496.502 75.2943C496.502 88.0761 505.184 96.0553 516.422 96.0553Z" fill="#F5F5F5"/>
<path d="M573.889 111.948V2.73341C573.889 1.34125 575.026 0.210693 576.426 0.210693H593.724C595.124 0.210693 596.261 1.34125 596.261 2.73341V111.948C596.261 113.341 595.124 114.471 593.724 114.471H576.426C575.026 114.471 573.889 113.341 573.889 111.948Z" fill="#F5F5F5"/>
<path d="M617.637 111.948V2.73341C617.637 1.34125 618.774 0.210693 620.174 0.210693H637.473C638.873 0.210693 640.01 1.34125 640.01 2.73341V111.948C640.01 113.341 638.873 114.471 637.473 114.471H620.174C618.774 114.471 617.637 113.341 617.637 111.948Z" fill="#F5F5F5"/>
<path d="M103.395 75.2943C103.395 90.9819 90.5696 103.736 74.7653 103.736C58.961 103.736 46.1352 91.0099 46.1352 75.2943C46.1352 59.5787 58.961 46.853 74.7653 46.853C90.5696 46.853 103.395 59.5787 103.395 75.2943ZM109.625 113.64C109.625 113.64 109.446 113.434 109.324 113.313C108.582 112.631 107.624 112.219 106.524 112.219C105.66 112.219 104.88 112.453 104.194 112.901C96.3482 118.947 86.595 122.628 75.9868 122.862H74.8499C49.2641 122.862 28.3577 102.932 27.0422 77.845V77.7236C27.0422 77.191 27.0141 76.6304 27.0141 76.0885V74.3413C27.0141 73.8087 27.0141 73.2481 27.0704 72.7062V72.5847C28.5362 47.4977 49.499 27.6616 75.0848 27.7737H76.1277C86.7736 28.0447 96.5832 31.7727 104.401 37.8553C105.058 38.3038 105.867 38.5373 106.693 38.5373C107.765 38.5373 108.751 38.1262 109.493 37.4442C109.616 37.3227 109.728 37.2106 109.794 37.1171L122.441 23.5972C123.155 22.8591 123.606 21.85 123.606 20.7195C123.606 19.5889 123.127 18.5518 122.385 17.8137C122.329 17.7576 122.263 17.6922 122.178 17.6361C113.139 10.2829 102.343 5.00386 90.5038 2.48114C86.1158 1.56549 82.1225 1.08898 77.6781 0.911453C76.8418 0.883423 76.0056 0.883423 75.113 0.883423H73.3841C72.4256 0.883423 71.4766 0.939483 70.5464 1.00489C70.3115 1.00489 70.0672 1.00489 69.8605 1.03292C68.8175 1.08898 67.8027 1.21044 66.788 1.30388C66.5812 1.30388 66.3745 1.33191 66.196 1.35994C63.9033 1.6309 61.6671 1.98594 59.4308 2.45311H59.3368C55.0991 3.34074 50.9836 4.59275 47.0466 6.16245C22.6918 15.8422 4.6794 37.874 0.779999 64.4372C0.751811 64.7082 0.686038 64.9698 0.657849 65.2408C0.629661 65.5678 0.601472 65.8948 0.535699 66.2218C0.413549 67.287 0.328984 68.3615 0.235023 69.4266C0.235023 69.7536 0.178646 70.1087 0.141061 70.4357C0.0846842 71.3233 0.0846842 72.1829 0.0470996 73.0706C0.0470996 73.6592 -0.00927734 74.2291 -0.00927734 74.8178V74.9673V75.0887V75.2663V75.3877V75.5372C-0.00927734 76.1258 0.0189111 76.6958 0.0470996 77.2844C0.0470996 78.172 0.075288 79.0597 0.141061 79.9566C0.141061 80.2837 0.197438 80.6107 0.235023 80.9377C0.328984 82.0028 0.385361 83.1054 0.535699 84.1705C0.563888 84.4975 0.592076 84.8246 0.657849 85.1516C0.686038 85.4225 0.751811 85.6841 0.779999 85.9551C4.56665 112.556 22.4569 134.644 46.7648 144.407C50.7017 145.977 54.7891 147.257 59.0173 148.173H59.1113C61.3476 148.649 63.5839 149.032 65.8765 149.303C66.0832 149.303 66.29 149.331 66.4685 149.359C67.4833 149.481 68.5262 149.565 69.541 149.658C69.7759 149.658 70.0202 149.658 70.2269 149.686C71.1478 149.743 72.1062 149.78 73.0646 149.808H74.7935C75.6579 149.808 76.4942 149.808 77.3586 149.78C81.803 149.602 85.7964 149.154 90.1844 148.266C102.024 145.809 112.848 140.558 121.915 133.261C122.009 133.205 122.066 133.139 122.122 133.083C122.864 132.345 123.343 131.308 123.343 130.177C123.343 129.047 122.892 128.038 122.178 127.3L109.597 113.714L109.625 113.658V113.64ZM149.671 75.3877V74.9766C149.671 74.3506 149.671 73.762 149.615 73.136C149.436 62.8208 146.571 51.2817 141.177 40.8171C140.999 40.4901 140.905 40.3406 140.877 40.2846C140.097 39.2755 138.913 38.6214 137.569 38.6214C136.583 38.6214 135.718 38.9765 135.004 39.5371L134.948 39.5931L122.3 50.3007L119.857 52.3749L119.763 52.4683C119.2 52.9729 118.627 54.1875 118.627 55.2901C118.627 55.7666 118.72 56.2057 118.861 56.6262C121.333 62.3537 122.704 68.6698 122.704 75.2756V75.6867C122.704 82.3018 121.333 88.618 118.861 94.3361C118.711 94.7472 118.627 95.1957 118.627 95.7003C118.627 96.7935 119.19 98.0455 119.763 98.522L119.857 98.6154L122.3 100.69L134.948 111.397L135.004 111.453C135.718 112.014 136.611 112.369 137.569 112.369H137.626C138.217 112.369 138.791 112.247 139.326 111.986C139.448 111.93 139.533 111.864 139.627 111.808C139.627 111.808 139.655 111.808 139.683 111.78C140.162 111.509 140.576 111.154 140.905 110.743C140.961 110.65 141.055 110.538 141.205 110.211C145.528 101.848 148.187 92.8038 149.202 84.2639C149.202 84.1425 149.202 84.0584 149.23 83.9369C149.352 82.8438 149.436 81.7693 149.53 80.7041C149.587 79.9006 149.624 79.1344 149.653 78.3589V77.8544C149.653 77.2284 149.681 76.6397 149.709 76.0137V75.6026V75.4251L149.681 75.3971L149.671 75.3877Z" fill="url(#paint0_linear_413_1472)"/>
</g>
<defs>
<linearGradient id="paint0_linear_413_1472" x1="20.7562" y1="133.251" x2="126.612" y2="17.4628" gradientUnits="userSpaceOnUse">
<stop stop-color="#3E50B4"/>
<stop offset="0.63" stop-color="#2F8676"/>
<stop offset="0.75" stop-color="#2F8872"/>
<stop offset="0.86" stop-color="#308F67"/>
<stop offset="0.96" stop-color="#329B55"/>
<stop offset="1" stop-color="#34A14C"/>
</linearGradient>
<clipPath id="clip0_413_1472">
<rect width="640" height="149.579" fill="white" transform="translate(0 0.210693)"/>
</clipPath>
</defs>
</svg>
