<?xml version="1.0" encoding="UTF-8"?><svg id="Layer_2" xmlns="http://www.w3.org/2000/svg" xmlns:xlink="http://www.w3.org/1999/xlink" viewBox="0 0 258 84.34"><defs><style>.cls-1{fill:#f8f7f6;}.cls-2{fill:url(#linear-gradient);}</style><linearGradient id="linear-gradient" x1="38.9" y1="95.56" x2="38.9" y2="-18.54" gradientUnits="userSpaceOnUse"><stop offset=".19" stop-color="#fbee7a"/><stop offset=".24" stop-color="#f7ec85"/><stop offset=".35" stop-color="#f2e89b"/><stop offset=".47" stop-color="#eee5ab"/><stop offset=".61" stop-color="#ebe4b4"/><stop offset=".82" stop-color="#ebe4b7"/></linearGradient></defs><g id="Layer_2-2"><g><g><g><path class="cls-1" d="M100.77,32.89c-1.45,0-2.64-.48-3.58-1.45-.87-.89-1.34-1.99-1.41-3.28s.38-2.7,1.26-3.7c.96-1.1,2.22-1.66,3.78-1.66s2.69,.47,3.63,1.4c.94,.93,1.41,2.12,1.41,3.55s-.47,2.65-1.41,3.64c-.94,1-2.17,1.49-3.68,1.49Z"/><path class="cls-1" d="M98.75,37.87c1.88,0,3.51,.67,4.88,2,1.37,1.33,2.06,2.98,2.06,4.94v21.15c0,.63-.22,1.14-.65,1.53-.43,.39-.92,.59-1.47,.59h-5.53c-.55,0-1.04-.19-1.47-.59-.43-.39-.65-.9-.65-1.53v-25.97c0-.55,.21-1.04,.65-1.47,.43-.43,.92-.65,1.47-.65h.71Z"/></g><path class="cls-1" d="M247.18,24.63c3.37,2,6.01,4.72,7.94,8.17,1.92,3.45,2.88,7.49,2.88,12.11s-.96,8.45-2.88,11.93c-1.92,3.49-4.57,6.23-7.94,8.23-3.37,2-7.21,3-11.52,3s-8.05-1-11.46-3c-3.41-2-6.08-4.74-7.99-8.23-1.92-3.49-2.88-7.47-2.88-11.93s.96-8.66,2.88-12.11c1.92-3.45,4.56-6.17,7.94-8.17,3.37-2,7.21-3,11.52-3s8.15,1,11.52,3Zm-5.11,32.74c1.92-1.18,3.41-2.84,4.47-5,1.06-2.15,1.59-4.64,1.59-7.47s-.53-5.41-1.59-7.52c-1.06-2.12-2.55-3.76-4.47-4.94-1.92-1.18-4.06-1.76-6.41-1.76s-4.47,.59-6.35,1.76-3.37,2.82-4.47,4.94c-1.1,2.12-1.65,4.63-1.65,7.52s.55,5.31,1.65,7.47c1.1,2.16,2.59,3.82,4.47,5s4,1.76,6.35,1.76,4.49-.59,6.41-1.76Z"/><path class="cls-1" d="M154.62,66.66l-12.7-17.75-2.04-2.82,1.48-2.11,13.05-18.34c.44-.71,.43-1.42-.02-2.13-.29-.46-.83-.69-1.37-.69h-6.72c-.31,0-.55,.12-.71,.35l-7.52,10.7-.71,1.06-1.88,2.59-.9,1.24-.9-1.24-1.88-2.59-.71-1.06-7.52-10.7c-.16-.24-.39-.35-.71-.35h-6.72c-.54,0-1.08,.24-1.37,.69-.46,.71-.47,1.42-.02,2.13l13.05,18.34,1.48,2.11-2.04,2.82-12.7,17.75c-.16,.31-.16,.63,0,.94,.16,.31,.43,.47,.82,.47h7.76c.94,0,1.65-.35,2.12-1.06l8.7-12.46,.63-.9,.63,.9,8.7,12.46c.47,.71,1.18,1.06,2.12,1.06h7.76c.39,0,.67-.16,.82-.47,.16-.31,.16-.63,0-.94Z"/><path class="cls-1" d="M205.15,32.45c-1.84-3.53-4.36-6.25-7.58-8.17-3.21-1.92-6.86-2.88-10.94-2.88-3.53,0-6.7,.82-9.52,2.47-1.08,.66-2.07,1.44-2.98,2.34-.52,.51-1.35,.35-1.58-.34,0,0-.01-.01-.02-.02-.33-.68-.78-1.3-1.36-1.86-.11-.1-.22-.19-.32-.29,0-.01-.02-.02-.03-.03,0,0-.03-.02-.05-.03-1.29-1.09-2.78-1.64-4.48-1.64h-.71c-.55,0-1.04,.22-1.47,.65-.43,.43-.65,.92-.65,1.47v57.49c0,.61,.21,1.1,.61,1.49l.03,.03s0,0,0,0c.43,.39,.92,.59,1.47,.59h5.53c.55,0,1.04-.19,1.47-.59,.43-.39,.65-.9,.65-1.53v-.18h0s0-17.06,0-17.06c0-.91,1.08-1.37,1.75-.75,.73,.67,1.52,1.25,2.36,1.76,2.75,1.65,5.84,2.47,9.29,2.47,4.08,0,7.72-.96,10.94-2.88,3.21-1.91,5.74-4.6,7.58-8.05,1.85-3.45,2.77-7.53,2.77-12.23s-.92-8.71-2.77-12.23Zm-8.87,19.69c-1.1,2.15-2.57,3.82-4.41,4.99-1.85,1.18-3.98,1.77-6.41,1.77-2.28,0-4.35-.59-6.23-1.77-1.88-1.18-3.37-2.84-4.47-4.99-1.1-2.15-1.65-4.64-1.65-7.46s.55-5.42,1.65-7.53,2.58-3.76,4.47-4.94c1.88-1.18,3.95-1.76,6.23-1.76,2.43,0,4.56,.58,6.41,1.76,1.84,1.18,3.31,2.82,4.41,4.94,1.09,2.11,1.65,4.63,1.65,7.53s-.55,5.31-1.65,7.46Z"/></g><path class="cls-2" d="M68.62,6.53H9.19C4.11,6.53,0,10.65,0,15.72v59.43c0,5.08,4.11,9.19,9.19,9.19h59.43c5.08,0,9.19-4.11,9.19-9.19V15.72c0-5.08-4.11-9.19-9.19-9.19Zm-4.76,54.18c0,.48-.27,.92-.7,1.14l-23.68,11.81c-.31,.16-.82,.16-1.14,0l-23.68-11.81c-.43-.22-.7-.66-.7-1.14V30.25c0-.48,.27-.92,.7-1.14l23.68-11.89c.36-.18,.78-.18,1.14,0l23.68,11.88c.43,.22,.7,.66,.7,1.14v30.47Zm4.76-41.94c0,.16-.09,.32-.24,.39l-2.67,1.33c-.06,.03-.13,.05-.19,.05s-.13-.02-.19-.05l-2.67-1.33c-.15-.07-.24-.22-.24-.39v-3.45c0-.16,.09-.32,.24-.39l2.67-1.34c.12-.06,.27-.06,.39,0l2.65,1.33c.16,.08,.27,.25,.27,.43v3.43Zm-26.84,45.43c-.73,.37-1.59-.17-1.59-.99v-8.45c0-4.53-1.43-8.84-4.06-12.4-.28-.38,.03-.92,.49-.87,3.98,.44,8.02-.27,11.6-2.06l6.79-3.39c.73-.37,1.59,.17,1.59,.99v19.38c0,.24-.14,.46-.35,.57l-14.47,7.22Zm-2.59-38.96l13.87,6.96c.81,.41,.81,1.57,0,1.97l-5.98,2.98c-5.12,2.55-11.22,2.55-16.34,0l-5.98-2.98c-.81-.41-.81-1.56,0-1.97l13.87-6.96c.18-.09,.39-.09,.57,0Zm-3.16,38.96l-13.86-6.92c-.59-.29-.96-.9-.96-1.56v-18.7c0-.82,.86-1.35,1.59-.99l4.09,2.04c6.58,3.28,10.74,10,10.74,17.36v7.77c0,.82-.86,1.35-1.59,.99ZM50.31,2.56V1.33c0-.74,.6-1.33,1.33-1.33h15.64c.74,0,1.33,.6,1.33,1.33v1.23c0,.74-.6,1.33-1.33,1.33h-15.64c-.74,0-1.33-.6-1.33-1.33Z"/></g></g></svg>