<svg width="24" height="24" viewBox="0 0 24 24" fill="none" xmlns="http://www.w3.org/2000/svg">
<path d="M20.9269 10.8515C20.9754 11.2324 20.9999 11.616 21 12C21.0014 13.6816 20.5312 15.33 19.643 16.7579C18.7547 18.1858 17.4839 19.3361 15.9748 20.0781C14.4657 20.8201 12.7788 21.1241 11.1056 20.9556C9.43237 20.7872 7.83993 20.1529 6.50904 19.125C8.87061 18.5475 11.6484 17.3503 14.2378 15.8625C16.9978 14.2772 19.3275 12.5118 20.9269 10.8515ZM22.979 5.68872C22.2619 4.45216 20.369 4.17372 17.4947 4.87685C16.1639 3.84789 14.5713 3.21276 12.8977 3.04363C11.2241 2.87449 9.53655 3.17813 8.02686 3.92004C6.51717 4.66194 5.2458 5.81239 4.35721 7.24067C3.46861 8.66896 2.99839 10.3178 2.99998 12C3.0001 12.3858 3.02452 12.7713 3.07311 13.154C0.477168 15.8437 0.514668 17.4375 1.02186 18.3112C1.49998 19.14 2.49748 19.5 3.80998 19.5C4.72125 19.4811 5.62715 19.3553 6.50904 19.125C6.02548 18.7512 5.58074 18.3297 5.18154 17.8668C3.56061 18.1368 2.55654 17.9606 2.31936 17.5584C2.18248 17.3231 2.25842 16.8797 2.52748 16.3397C2.79352 15.8339 3.1169 15.3605 3.49123 14.9287C3.49167 14.9259 3.49167 14.9231 3.49123 14.9203V14.9278C3.86329 16.0043 4.43588 17.0006 5.17873 17.864C7.14186 17.5368 10.0059 16.56 13.4878 14.5593C16.125 13.049 18.9375 10.9378 20.5115 9.07685C20.1409 7.99884 19.5682 7.00136 18.824 6.13779L18.8119 6.12372C18.8119 6.12841 18.8203 6.13216 18.824 6.13779C20.1562 5.91747 21.39 5.93435 21.6834 6.44153C21.7697 6.58872 21.7772 6.80904 21.6975 7.09778C21.539 7.68935 21.1172 8.36622 20.5134 9.07872C20.7119 9.6546 20.8511 10.2492 20.9287 10.8534C22.1006 9.63466 22.8806 8.47685 23.1459 7.48591C23.3278 6.79779 23.2725 6.19404 22.979 5.68872Z" fill="#07F52C"/>
</svg>
