<?xml version="1.0" encoding="utf-8"?>
<!-- Generator: Adobe Illustrator 27.7.0, SVG Export Plug-In . SVG Version: 6.00 Build 0)  -->
<svg version="1.1" id="Layer_1" xmlns="http://www.w3.org/2000/svg" xmlns:xlink="http://www.w3.org/1999/xlink" x="0px" y="0px"
	 viewBox="0 0 24 24" style="enable-background:new 0 0 24 24;" xml:space="preserve">
<style type="text/css">
	.st0{fill:#07F52C;}
</style>
<path class="st0" d="M22.8,11.7c0-0.1-0.8-1.8-2.6-3.6c-2.4-2.4-5.3-3.6-8.6-3.6c-3.3,0-6.2,1.2-8.6,3.6c-1.8,1.8-2.6,3.5-2.6,3.6
	c0,0.1-0.1,0.2-0.1,0.3c0,0.1,0,0.2,0.1,0.3c0,0.1,0.8,1.8,2.6,3.6c2.4,2.4,5.3,3.6,8.6,3.6c3.3,0,6.2-1.2,8.6-3.6
	c1.8-1.8,2.6-3.5,2.6-3.6c0-0.1,0.1-0.2,0.1-0.3C22.9,11.9,22.9,11.8,22.8,11.7z M11.7,15.8c-0.7,0-1.5-0.2-2.1-0.6
	c-0.6-0.4-1.1-1-1.4-1.7C7.9,12.7,7.8,12,8,11.3c0.1-0.7,0.5-1.4,1-1.9c0.5-0.5,1.2-0.9,1.9-1c0.7-0.1,1.5-0.1,2.2,0.2
	c0.7,0.3,1.3,0.8,1.7,1.4c0.4,0.6,0.6,1.3,0.6,2.1c0,1-0.4,1.9-1.1,2.7C13.6,15.4,12.6,15.8,11.7,15.8z"/>
</svg>
