<?xml version="1.0" encoding="utf-8"?>
<!-- Generator: Adobe Illustrator 27.7.0, SVG Export Plug-In . SVG Version: 6.00 Build 0)  -->
<svg version="1.1" id="Layer_1" xmlns="http://www.w3.org/2000/svg" xmlns:xlink="http://www.w3.org/1999/xlink" x="0px" y="0px"
	 viewBox="0 0 24 24" style="enable-background:new 0 0 24 24;" xml:space="preserve">
<style type="text/css">
	.st0{fill:#F5F5F5;}
</style>
<path class="st0" d="M22.8,11.7c0-0.1-0.8-1.8-2.6-3.6c-2.4-2.4-5.3-3.6-8.6-3.6c-3.3,0-6.2,1.2-8.6,3.6c-1.8,1.8-2.6,3.5-2.6,3.6
	c0,0.1-0.1,0.2-0.1,0.3c0,0.1,0,0.2,0.1,0.3c0,0.1,0.8,1.8,2.6,3.6c2.4,2.4,5.3,3.6,8.6,3.6c3.3,0,6.2-1.2,8.6-3.6
	c1.8-1.8,2.6-3.5,2.6-3.6c0-0.1,0.1-0.2,0.1-0.3C22.9,11.9,22.9,11.8,22.8,11.7z M11.7,18c-2.9,0-5.4-1-7.5-3.1
	C3.3,14,2.6,13.1,2,12c0.6-1.1,1.3-2,2.2-2.9C6.2,7,8.8,6,11.7,6c2.9,0,5.4,1,7.5,3.1c0.9,0.9,1.6,1.8,2.2,2.9
	C20.6,13.3,17.7,18,11.7,18z M11.7,7.5c-0.9,0-1.8,0.3-2.5,0.8c-0.7,0.5-1.3,1.2-1.7,2c-0.3,0.8-0.4,1.7-0.3,2.6
	c0.2,0.9,0.6,1.7,1.2,2.3c0.6,0.6,1.4,1.1,2.3,1.2c0.9,0.2,1.8,0.1,2.6-0.3c0.8-0.3,1.5-0.9,2-1.7c0.5-0.7,0.8-1.6,0.8-2.5
	c0-1.2-0.5-2.3-1.3-3.2C14,8,12.8,7.5,11.7,7.5z M11.7,15c-0.6,0-1.2-0.2-1.7-0.5c-0.5-0.3-0.9-0.8-1.1-1.3
	c-0.2-0.5-0.3-1.2-0.2-1.7c0.1-0.6,0.4-1.1,0.8-1.5c0.4-0.4,1-0.7,1.5-0.8c0.6-0.1,1.2-0.1,1.7,0.2c0.5,0.2,1,0.6,1.3,1.1
	c0.3,0.5,0.5,1.1,0.5,1.7c0,0.8-0.3,1.6-0.9,2.1S12.4,15,11.7,15z"/>
</svg>
