<?xml version="1.0" encoding="UTF-8"?><svg id="Layer_2" xmlns="http://www.w3.org/2000/svg" xmlns:xlink="http://www.w3.org/1999/xlink" viewBox="0 0 214.61 50.43"><defs><style>.cls-1{fill:#0b0d0e;}.cls-2{fill:url(#linear-gradient);}</style><linearGradient id="linear-gradient" x1="5.16" y1="45.19" x2="45.69" y2="4.66" gradientUnits="userSpaceOnUse"><stop offset="0" stop-color="#3e50b4"/><stop offset=".63" stop-color="#2f8676"/><stop offset=".75" stop-color="#2f8872"/><stop offset=".86" stop-color="#308f67"/><stop offset=".96" stop-color="#329b55"/><stop offset="1" stop-color="#34a14c"/></linearGradient></defs><g id="Layer_5"><path class="cls-1" d="m85.62,30.12c-.22-.22-.49-.31-.74-.3-.26,0-.51.1-.71.3-1.44,1.44-2.98,2.19-5.1,2.21-4.27-.04-6.97-3.2-7.02-7,.05-3.8,2.75-6.96,7.02-7,2.12.02,3.66.77,5.1,2.21.2.2.45.3.71.3.26.01.52-.08.74-.3l3.23-3.18c.32-.32.43-.75.11-1.13-2.26-2.91-5.87-4.74-10.13-4.74-.03,0-.06,0-.09,0-.03,0-.05,0-.08,0-7.92,0-13.79,5.93-13.79,13.74,0,.04,0,.07,0,.11,0,.04,0,.07,0,.11,0,7.81,5.87,13.74,13.79,13.74.03,0,.05,0,.08,0,.03,0,.06,0,.09,0,4.26,0,7.87-1.83,10.13-4.74.32-.38.22-.81-.11-1.13l-3.23-3.18Z"/><path class="cls-1" d="m93.59,25.32c0-7.81,5.87-13.85,13.85-13.85s13.79,6.03,13.79,13.85-5.87,13.85-13.79,13.85-13.85-6.03-13.85-13.85Zm13.85,7c3.72,0,6.63-2.69,6.63-7s-2.91-7-6.63-7-6.68,2.69-6.68,7,2.91,7,6.68,7Z"/><path class="cls-1" d="m126.71,47.92V12.97c0-.47.38-.85.85-.85h5.29c.38,0,.81.35.81.81l.05,1.45c.02.48.61.67.92.31,1.78-2.04,4.32-3.21,7.76-3.21,7.38,0,12.5,6.04,12.5,13.85s-5.12,13.85-12.5,13.85c-3.57,0-6.29-1.37-8.12-3.69-.02-.03-.07-.01-.07.02v12.41c0,.47-.38.85-.85.85h-5.79c-.47,0-.85-.38-.85-.85Zm14.12-15.53c3.88,0,6.79-2.8,6.79-7.06s-2.91-7.06-6.79-7.06-6.73,2.8-6.73,7.06,2.75,7.06,6.73,7.06Z"/><path class="cls-1" d="m159.33,25.32c0-7.81,5.87-13.85,13.85-13.85s13.79,6.03,13.79,13.85-5.87,13.85-13.79,13.85-13.85-6.03-13.85-13.85Zm13.85,7c3.72,0,6.63-2.69,6.63-7s-2.91-7-6.63-7-6.68,2.69-6.68,7,2.91,7,6.68,7Z"/><path class="cls-1" d="m192.45,37.68V.85c0-.47.38-.85.85-.85h5.8c.47,0,.85.38.85.85v36.83c0,.47-.38.85-.85.85h-5.8c-.47,0-.85-.38-.85-.85Z"/><path class="cls-1" d="m207.12,37.68V.85c0-.47.38-.85.85-.85h5.8c.47,0,.85.38.85.85v36.83c0,.47-.38.85-.85.85h-5.8c-.47,0-.85-.38-.85-.85Z"/><path class="cls-2" d="m34.68,25.32c0,5.29-4.3,9.59-9.6,9.59s-9.6-4.29-9.6-9.59,4.3-9.59,9.6-9.59,9.6,4.29,9.6,9.59Zm2.09,12.93s-.06-.07-.1-.11c-.25-.23-.57-.37-.94-.37-.29,0-.55.08-.78.23-2.63,2.04-5.9,3.28-9.46,3.36-.13,0-.25,0-.38,0-8.58,0-15.59-6.72-16.03-15.18,0-.01,0-.03,0-.04,0-.18-.01-.37-.01-.55,0-.1,0-.2,0-.29,0-.1,0-.2,0-.3,0-.18,0-.37.02-.55,0-.01,0-.03,0-.04.49-8.46,7.52-15.15,16.1-15.11.12,0,.24,0,.35,0,3.57.09,6.86,1.35,9.48,3.4.22.15.49.23.77.23.36,0,.69-.14.94-.37.04-.04.08-.08.1-.11l4.24-4.56c.24-.25.39-.59.39-.97s-.16-.73-.41-.98c-.02-.02-.04-.04-.07-.06-3.03-2.48-6.65-4.26-10.62-5.11-1.47-.31-2.81-.47-4.3-.53-.28-.01-.56-.01-.86-.01-.24,0-.43,0-.48,0h0s0,0,0,0c0,0,0,0,0,0-.03,0-.07,0-.1,0-.32,0-.64.02-.95.04-.08,0-.16,0-.23.01-.35.02-.69.06-1.03.09-.07,0-.14.01-.2.02-.77.09-1.52.21-2.27.37,0,0-.03,0-.03,0-1.42.3-2.8.72-4.12,1.25C7.62,5.27,1.58,12.7.27,21.66c-.01.09-.03.18-.04.27-.01.11-.02.22-.04.33-.04.36-.07.72-.1,1.08,0,.11-.02.23-.03.34-.02.3-.02.59-.03.89,0,.2-.02.39-.02.59,0,.02,0,.03,0,.05,0,0,0,0,0,0,0,0,0,0,0,0,0,0,0,.01,0,.02,0,0,0,.01,0,.02,0,0,0,0,0,0,0,0,0,0,0,0,0,0,0,.02,0,.03,0,0,0,.02,0,.03,0,0,0,0,0,0s0,0,0,0c0,0,0,.01,0,.02s0,.01,0,.02c0,0,0,0,0,0s0,0,0,0c0,.02,0,.03,0,.05,0,.2.01.39.02.59,0,.3.01.6.03.9,0,.11.02.22.03.33.03.36.05.73.1,1.09.01.11.02.22.04.33.01.09.03.18.04.27,1.27,8.97,7.27,16.42,15.42,19.71,1.32.53,2.69.96,4.11,1.27,0,0,.03,0,.03,0,.75.16,1.5.29,2.27.38.07,0,.14.01.2.02.34.04.69.07,1.03.1.08,0,.16,0,.23.01.31.02.63.03.95.04.03,0,.07,0,.1,0,0,0,0,0,0,0,0,0,0,0,0,0h0s.25,0,.48,0c.29,0,.57,0,.86-.01,1.49-.06,2.83-.21,4.3-.51,3.97-.83,7.6-2.6,10.64-5.06.03-.02.05-.04.07-.06.25-.25.41-.6.41-.98,0-.38-.15-.72-.39-.97l-4.22-4.58Zm13.43-12.9v-.14c0-.21,0-.41-.02-.62-.06-3.48-1.02-7.37-2.83-10.9-.06-.11-.09-.16-.1-.18-.26-.34-.66-.56-1.11-.56-.33,0-.62.12-.86.31l-.02.02-4.24,3.61-.82.7-.03.03c-.19.17-.38.58-.38.95,0,.16.03.31.08.45.83,1.93,1.29,4.06,1.29,6.29,0,.02,0,.05,0,.07,0,.02,0,.04,0,.07,0,2.23-.46,4.36-1.29,6.29-.05.14-.08.29-.08.46,0,.37.19.79.38.95l.03.03.82.7,4.24,3.61.02.02c.24.19.54.31.86.31,0,0,0,0,.02,0,.2,0,.39-.04.57-.13.04-.02.07-.04.1-.06,0,0,.01,0,.02-.01.16-.09.3-.21.41-.35.02-.03.05-.07.1-.18,1.45-2.82,2.34-5.87,2.68-8.75,0-.04,0-.07.01-.11.04-.37.07-.73.1-1.09.02-.27.03-.53.04-.79,0-.05,0-.11,0-.17,0-.21.01-.41.02-.62v-.1s0-.04,0-.04c0,0,0,0,0,0v-.06s0,0,0,0Z"/></g></svg>