<?xml version="1.0" encoding="UTF-8"?><svg id="Layer_2" xmlns="http://www.w3.org/2000/svg" viewBox="0 0 221.29 109.91"><defs><style>.cls-1{fill:#f5f5f5;}</style></defs><g id="Layer_4"><g><g><path class="cls-1" d="m1.55,22.32h8.97c0,2.86,1.15,4.63,5.1,4.63s4.87-1.53,4.87-3.1c0-1.19-.48-1.96-1.67-2.34-1.19-.38-4.01-.76-6.34-1.1-2.77-.38-5.96-1.05-7.82-2.24-2.05-1.29-3.2-3.53-3.2-6.63C1.45,5.39,6.37,1.19,15.95,1.19c10.73,0,13.93,4.2,13.93,11.07h-8.68c0-2.91-1.48-4.48-4.82-4.48s-4.63,1.24-4.63,2.91c0,1.24.38,1.96,1.34,2.39,1,.43,3.82.86,6.49,1.29,3.48.52,6.01,1.1,7.82,2.05,2.29,1.29,3.53,3.53,3.53,6.58,0,5.58-3.1,10.54-15.03,10.54S1.55,28,1.55,22.32Z"/><path class="cls-1" d="m35.7,24.76v-8.16h-3.24v-7.11h2.58c1.29,0,1.86-.62,2-2.34l.33-3h7.77v5.34h6.96v7.11h-6.96v7.25c0,1.96.91,2.58,3.58,2.58,1.1,0,2.48-.14,3.1-.29v6.77c-.72.19-2.86.52-5.44.52-7.92,0-10.68-3.34-10.68-8.68Z"/><path class="cls-1" d="m54.35,23.75v-14.26h9.44v12.31c0,2.53,1.29,3.77,3.58,3.77,2.91,0,4.58-1.96,4.58-5.96v-10.11h9.44v23.56h-9.44c.14-1.53.29-3.72.33-6.3h-.1c-1,4.25-3.91,6.68-8.54,6.68-5.96,0-9.3-3.2-9.3-9.68Z"/><path class="cls-1" d="m83.97,21.08c0-7.39,4.25-11.97,10.78-11.97,3.82,0,6.11,1.34,7.11,3.43h.05V0h9.44v33.06h-9.44c.1-.86.19-2.67.29-4.91h-.1c-.91,3.01-3.29,5.3-7.63,5.3-6.63,0-10.49-4.72-10.49-12.35Zm17.94.43v-1.38c-.05-2.53-1.77-4.29-4.34-4.29s-4.2,1.96-4.2,5.34,1.57,5.53,4.1,5.53,4.44-1.86,4.44-5.2Z"/><path class="cls-1" d="m114.45.91h9.49v6.44h-9.49V.91Zm0,8.59h9.44v23.56h-9.44V9.49Z"/><path class="cls-1" d="m125.61,21.32c0-7.39,4.72-12.21,13.55-12.21s13.5,4.82,13.5,12.21-4.67,12.12-13.5,12.12-13.55-4.77-13.55-12.12Zm17.6,0c0-3.58-1.43-5.49-4.05-5.49s-4.1,1.91-4.1,5.49,1.43,5.39,4.1,5.39,4.05-1.91,4.05-5.39Z"/></g><g><path class="cls-1" d="m0,71.06c0-14.88,10.23-24.04,25.97-24.04s25.97,9.16,25.97,24.04-10.02,24.47-25.97,24.47S0,86.51,0,71.06Zm35.99.07c0-8.23-4.36-12.38-10.02-12.38s-10.02,4.15-10.02,12.38,4.36,12.66,10.02,12.66,10.02-4.15,10.02-12.66Z"/><path class="cls-1" d="m55.81,59.47h14.17l-.43,9.87h.14c1.43-6.3,4.79-10.44,11.59-10.44,7.44,0,11.02,4.58,11.02,14.09,0,2.57-.21,6.15-.36,8.16h-12.16c.14-1.65.14-3.58.14-4.65,0-4.08-1.5-5.72-4.15-5.72-3.51,0-5.79,2.93-5.79,9.23v14.81h-14.17v-35.34Z"/><path class="cls-1" d="m109.97,88.01h-.07c.07,2.07.21,5.01.36,6.8h-14.16v-49.58h14.16v14.02c0,1.86-.14,4.79-.21,6.51h.14c1.43-4.29,5.58-6.87,11.66-6.87,9.59,0,15.31,6.22,15.31,17.53,0,12.45-6.08,18.96-15.38,18.96-6.51,0-10.44-3-11.8-7.37Zm13.02-11.16c0-5.01-2.08-7.87-5.94-7.87-4.22,0-6.8,2.72-6.8,7.8v1.86c.14,4.29,2.65,6.65,6.8,6.65,3.72,0,5.94-2.86,5.94-8.44Z"/><path class="cls-1" d="m143.59,108.9v-9.73c1.15.29,2.93.5,4.87.5,3.15,0,4.44-1.29,5.79-4.87h-3l-14.02-35.34h16.24l7.01,21.18h.14l6.3-21.18h13.16l-12.23,36.42c-3.43,10.37-8.08,14.02-16.46,14.02-3.58,0-6.51-.57-7.8-1Z"/><path class="cls-1" d="m207.13,87.87h-.07c-1.15,4.29-4.51,7.51-10.95,7.51-10.02,0-15.88-7.15-15.88-18.6,0-10.59,6.44-17.89,16.17-17.89,6.01,0,9.37,2.29,10.8,6.08h.07v-5.51h14.02v49.51h-14.16v-21.1Zm0-10.23v-2.22c-.07-3.79-2.5-6.44-6.51-6.44-3.79,0-6.3,2.86-6.3,7.87,0,5.44,2.43,8.44,6.15,8.44,4.01,0,6.65-2.86,6.65-7.66Z"/></g></g></g></svg>