<?xml version="1.0" encoding="UTF-8"?><svg id="Layer_2" xmlns="http://www.w3.org/2000/svg" viewBox="0 0 62.24 72.1"><defs><style>.cls-1{fill:#040404;}</style></defs><g id="Elements"><path class="cls-1" d="m62.24,27.53c0,24.56-19.85,44.47-44.38,44.58-.66,0-1.31-.04-1.96-.1-.32-.04-.64-.09-.95-.13-.26-.04-.51-.09-.76-.13-.24-.05-.5-.11-.75-.17-7.72-2-13.45-9.03-13.45-17.38,0-9.9,8.04-17.94,17.92-17.94h0c19.25-.29,34.82-16.04,34.82-35.36,0-.29,0-.59-.02-.88,5.96,7.58,9.52,17.14,9.52,27.53Z"/></g></svg>