<?xml version="1.0" encoding="UTF-8"?><svg id="Layer_2" xmlns="http://www.w3.org/2000/svg" viewBox="0 0 72.94 72.93"><defs><style>.cls-1{fill:#878787;}</style></defs><g id="Icon-Precise"><g><path class="cls-1" d="m52.72,3.82c2.99,3.66,4.78,8.33,4.78,13.41,0,11.59-9.32,21.02-20.85,21.22v.02c-9.5,0-17.22,7.73-17.22,17.24s7.64,17.14,17.06,17.23c20.13-.01,36.45-16.33,36.45-36.47,0-14.3-8.23-26.67-20.21-32.65Z"/><path class="cls-1" d="m15.43,55.7c0-11.58,9.32-21.02,20.85-21.22v-.02c9.5,0,17.22-7.73,17.22-17.24S45.86.09,36.44,0C16.31.01,0,16.33,0,36.47c0,14.3,8.23,26.67,20.21,32.65-2.99-3.66-4.78-8.33-4.78-13.41Z"/></g></g></svg>