<svg width="68" height="63" viewBox="0 0 68 63" fill="none" xmlns="http://www.w3.org/2000/svg">
<path d="M67.5 35C67.5 35.663 67.2366 36.2989 66.7678 36.7678C66.2989 37.2366 65.663 37.5 65 37.5C64.337 37.5 63.7011 37.2366 63.2322 36.7678C62.7634 36.2989 62.5 35.663 62.5 35C62.4909 27.0463 59.3273 19.421 53.7032 13.7968C48.079 8.17272 40.4537 5.0091 32.5 5C25.2091 5.00827 18.2192 7.90824 13.0637 13.0637C7.90824 18.2192 5.00827 25.2091 5 32.5C5.00744 39.1281 7.64375 45.4827 12.3306 50.1694C17.0173 54.8562 23.3719 57.4926 30 57.5C35.9653 57.4934 41.6845 55.1207 45.9026 50.9026C50.1207 46.6845 52.4934 40.9653 52.5 35C52.4942 29.6974 50.3852 24.6137 46.6357 20.8643C42.8863 17.1148 37.8026 15.0058 32.5 15C27.8602 15.005 23.4119 16.8503 20.1311 20.1311C16.8503 23.4119 15.005 27.8602 15 32.5C15.0041 36.477 16.5858 40.2899 19.398 43.102C22.2101 45.9142 26.023 47.4959 30 47.5C31.6415 47.5 33.267 47.1767 34.7835 46.5485C36.3001 45.9203 37.6781 44.9996 38.8388 43.8388C39.9996 42.6781 40.9203 41.3001 41.5485 39.7835C42.1767 38.267 42.5 36.6415 42.5 35C42.5 32.3478 41.4464 29.8043 39.5711 27.9289C37.6957 26.0536 35.1522 25 32.5 25C30.5109 25 28.6032 25.7902 27.1967 27.1967C25.7902 28.6032 25 30.5109 25 32.5C25 33.8261 25.5268 35.0979 26.4645 36.0355C27.4021 36.9732 28.6739 37.5 30 37.5C30.663 37.5 31.2989 37.2366 31.7678 36.7678C32.2366 36.2989 32.5 35.663 32.5 35C31.837 35 31.2011 34.7366 30.7322 34.2678C30.2634 33.7989 30 33.163 30 32.5C30 31.837 30.2634 31.2011 30.7322 30.7322C31.2011 30.2634 31.837 30 32.5 30C33.8261 30 35.0979 30.5268 36.0355 31.4645C36.9732 32.4021 37.5 33.6739 37.5 35C37.5 36.9891 36.7098 38.8968 35.3033 40.3033C33.8968 41.7098 31.9891 42.5 30 42.5C27.3478 42.5 24.8043 41.4464 22.9289 39.5711C21.0536 37.6957 20 35.1522 20 32.5C20 29.1848 21.317 26.0054 23.6612 23.6612C26.0054 21.317 29.1848 20 32.5 20C36.477 20.0041 40.2899 21.5858 43.102 24.398C45.9142 27.2101 47.4959 31.023 47.5 35C47.495 39.6398 45.6497 44.0881 42.3689 47.3689C39.0881 50.6497 34.6398 52.495 30 52.5C24.6974 52.4942 19.6137 50.3852 15.8643 46.6357C12.1148 42.8863 10.0058 37.8026 10 32.5C10.0066 26.5347 12.3793 20.8155 16.5974 16.5974C20.8155 12.3793 26.5347 10.0066 32.5 10C39.1281 10.0074 45.4827 12.6438 50.1694 17.3306C54.8562 22.0173 57.4926 28.3719 57.5 35C57.4917 42.2909 54.5918 49.2808 49.4363 54.4363C44.2808 59.5918 37.2909 62.4917 30 62.5C22.0463 62.4909 14.421 59.3273 8.79685 53.7032C3.17273 48.079 0.00909799 40.4537 0 32.5C0.00909943 23.8833 3.43612 15.622 9.52908 9.52908C15.622 3.43612 23.8833 0.00909943 32.5 0C41.7795 0.00992641 50.6762 3.7006 57.2378 10.2622C63.7994 16.8238 67.4901 25.7205 67.5 35Z" fill="#07F52C"/>
</svg>
