<svg width="61" height="60" viewBox="0 0 61 60" fill="none" xmlns="http://www.w3.org/2000/svg">
<path d="M51.2875 30C58.9907 19.1844 62.9188 8.00625 57.4563 2.54375C51.9938 -2.91875 40.8157 1.00937 30 8.7125C19.1844 1.00937 8.00628 -2.91875 2.54378 2.54375C-2.91872 8.00625 1.0094 19.1844 8.71253 30C1.0094 40.8156 -2.91872 51.9937 2.54378 57.4562C4.30315 59.2156 6.65315 60 9.39065 60C15.1657 60 22.6657 56.5094 30.0157 51.2875C37.3344 56.5094 44.8344 60 50.625 60C53.3625 60 55.7157 59.2125 57.4719 57.4562C62.9188 51.9937 58.9907 40.8156 51.2875 30ZM53.9219 6.07812C56.3094 8.46562 54.6969 16.2031 48.1344 25.8531C46.0583 23.2831 43.8479 20.8244 41.5125 18.4875C39.1753 16.1553 36.7167 13.9481 34.1469 11.875C43.7969 5.3125 51.5344 3.6875 53.9219 6.07812ZM45.0906 30C42.8793 32.7974 40.5043 35.4614 37.9781 37.9781C35.4615 40.5043 32.7974 42.8793 30 45.0906C27.2026 42.8793 24.5386 40.5043 22.0219 37.9781C19.4957 35.4614 17.1207 32.7974 14.9094 30C19.346 24.4093 24.4093 19.3459 30 14.9094C32.7974 17.1207 35.4615 19.4957 37.9781 22.0219C40.5043 24.5386 42.8793 27.2026 45.0906 30ZM6.07815 6.07812C6.76565 5.3875 7.90003 5.03124 9.3969 5.03124C13.0907 5.03124 18.9875 7.1875 25.85 11.875C23.2826 13.9498 20.8251 16.1569 18.4875 18.4875C16.1553 20.8247 13.9481 23.2833 11.875 25.8531C5.31253 16.2031 3.69065 8.46562 6.07815 6.07812ZM6.07815 53.9219C3.69065 51.5344 5.31253 43.7969 11.875 34.1469C13.9511 36.7169 16.1615 39.1755 18.4969 41.5125C20.8326 43.8428 23.288 46.05 25.8532 48.125C16.2032 54.6875 8.46565 56.3125 6.07815 53.9219ZM53.9219 53.9219C51.5344 56.3125 43.7969 54.6969 34.1469 48.1344C36.7155 46.0566 39.1741 43.8463 41.5125 41.5125C43.8447 39.1753 46.052 36.7167 48.125 34.1469C54.6875 43.7969 56.3094 51.5344 53.9219 53.9219ZM33.75 30C33.75 30.7417 33.5301 31.4667 33.118 32.0834C32.706 32.7001 32.1203 33.1807 31.4351 33.4645C30.7499 33.7484 29.9959 33.8226 29.2684 33.6779C28.541 33.5332 27.8728 33.1761 27.3484 32.6516C26.8239 32.1272 26.4668 31.459 26.3221 30.7316C26.1774 30.0042 26.2516 29.2502 26.5355 28.5649C26.8193 27.8797 27.3 27.294 27.9166 26.882C28.5333 26.4699 29.2583 26.25 30 26.25C30.9946 26.25 31.9484 26.6451 32.6517 27.3483C33.3549 28.0516 33.75 29.0054 33.75 30Z" fill="#07F52C"/>
</svg>
