<svg width="62" height="60" viewBox="0 0 62 60" fill="none" xmlns="http://www.w3.org/2000/svg">
<path d="M61.0002 11.0313C60.9832 9.5267 60.6628 8.04103 60.0582 6.66319C59.4536 5.28536 58.5772 4.04368 57.4814 3.01251C53.1064 -1.13749 46.0064 -0.981244 41.6627 3.36563L35.6252 9.43751C34.1993 8.13795 32.3275 7.43782 30.3988 7.48263C28.4701 7.52745 26.6329 8.31376 25.2689 9.67813L22.4564 12.4906C21.9915 12.955 21.6227 13.5064 21.3711 14.1134C21.1195 14.7204 20.99 15.3711 20.99 16.0281C20.99 16.6852 21.1195 17.3358 21.3711 17.9428C21.6227 18.5498 21.9915 19.1013 22.4564 19.5656L23.0814 20.2094L7.1439 36.1469C5.60983 37.669 4.4994 39.565 3.92231 41.6476C3.34521 43.7302 3.32142 45.9273 3.85328 48.0219L1.35328 53.775C1.00461 54.5656 0.903678 55.4432 1.06378 56.2923C1.22389 57.1413 1.63752 57.922 2.25015 58.5313C2.95879 59.2446 3.86695 59.7264 4.85492 59.9133C5.84289 60.1002 6.8643 59.9833 7.78452 59.5781L13.2595 57.1875C15.3165 57.6529 17.4579 57.5889 19.4834 57.0014C21.5089 56.4138 23.3522 55.322 24.8408 53.8281L40.7783 37.8906L41.422 38.5344C42.3596 39.4714 43.6309 39.9977 44.9564 39.9977C46.2819 39.9977 47.5532 39.4714 48.4908 38.5344L51.3033 35.7219C52.67 34.3561 53.4569 32.5156 53.5 30.5839C53.5431 28.6522 52.839 26.7785 51.5345 25.3531L57.7064 19.1438C58.7734 18.083 59.6151 16.8177 60.1811 15.4236C60.7471 14.0296 61.0257 12.5356 61.0002 11.0313ZM21.3127 50.3125C20.3506 51.2766 19.1442 51.9605 17.8228 52.2908C16.5015 52.6211 15.1152 52.5854 13.8126 52.1875C13.2415 52.0115 12.6262 52.0458 12.0783 52.2844L6.42202 54.7563L8.81265 49.1906C9.0607 48.6221 9.08855 47.9817 8.89077 47.3938C8.43773 46.07 8.36598 44.6455 8.6837 43.2829C9.00142 41.9202 9.69582 40.6744 10.6876 39.6875L26.6252 23.75L37.2314 34.375L21.3127 50.3125ZM54.1658 15.625L46.2376 23.6C45.7701 24.0687 45.5076 24.7036 45.5076 25.3656C45.5076 26.0276 45.7701 26.6626 46.2376 27.1313L47.7658 28.6594C47.9982 28.8916 48.1826 29.1673 48.3084 29.4708C48.4342 29.7743 48.499 30.0996 48.499 30.4281C48.499 30.7567 48.4342 31.082 48.3084 31.3855C48.1826 31.689 47.9982 31.9647 47.7658 32.1969L44.9533 35.0094L26.0002 16.0188L28.8127 13.2063C29.2814 12.7378 29.9171 12.4746 30.5798 12.4746C31.2426 12.4746 31.8782 12.7378 32.347 13.2063L33.8751 14.7344C34.1074 14.9673 34.3833 15.1521 34.6871 15.2782C34.9909 15.4043 35.3166 15.4692 35.6455 15.4692C35.9744 15.4692 36.3001 15.4043 36.6038 15.2782C36.9076 15.1521 37.1835 14.9673 37.4158 14.7344L45.2095 6.89376C47.6502 4.45001 51.6158 4.33751 54.0501 6.64063C54.6582 7.21499 55.1448 7.90557 55.4811 8.67143C55.8174 9.4373 55.9965 10.2629 56.0078 11.0992C56.0192 11.9356 55.8626 12.7657 55.5472 13.5404C55.2319 14.3152 54.7643 15.0187 54.172 15.6094L54.1658 15.625Z" fill="#07F52C"/>
</svg>
