<svg width="69" height="65" viewBox="0 0 69 65" fill="none" xmlns="http://www.w3.org/2000/svg">
<path d="M53.4998 33C53.517 43.1015 51.5485 53.1078 47.706 62.45C47.5196 62.9108 47.2 63.3056 46.7881 63.584C46.3762 63.8623 45.8906 64.0115 45.3935 64.0125C45.072 64.0094 44.754 63.9458 44.456 63.825C44.152 63.7003 43.8755 63.5168 43.6424 63.2851C43.4093 63.0534 43.2242 62.778 43.0976 62.4747C42.9711 62.1714 42.9056 61.8461 42.9049 61.5174C42.9042 61.1888 42.9683 60.8632 43.0935 60.5594C46.685 51.8162 48.522 42.4521 48.4998 33C48.4998 32.337 48.7632 31.7011 49.232 31.2322C49.7008 30.7634 50.3367 30.5 50.9998 30.5C51.6628 30.5 52.2987 30.7634 52.7675 31.2322C53.2364 31.7011 53.4998 32.337 53.4998 33ZM35.9998 20.5C37.758 20.5012 39.4962 20.8728 41.1013 21.5905C42.7064 22.3083 44.1422 23.356 45.3154 24.6656C45.5326 24.9162 45.7976 25.1211 46.0948 25.2683C46.3919 25.4155 46.7155 25.5021 47.0464 25.523C47.3774 25.544 47.7093 25.4989 48.0227 25.3903C48.336 25.2818 48.6247 25.112 48.8718 24.8908C49.1189 24.6696 49.3195 24.4014 49.462 24.1019C49.6045 23.8024 49.6859 23.4776 49.7016 23.1463C49.7173 22.815 49.6669 22.484 49.5534 22.1723C49.4399 21.8607 49.2655 21.5748 49.0404 21.3312C46.6772 18.6906 43.5681 16.8295 40.1242 15.9944C36.6804 15.1592 33.0641 15.3892 29.7539 16.6539C26.4436 17.9187 23.5953 20.1587 21.5857 23.0774C19.5761 25.9962 18.5001 29.4563 18.4998 33C18.4994 40.1985 16.6715 47.279 13.1873 53.5781C13.028 53.8654 12.927 54.1812 12.8898 54.5075C12.8526 54.8339 12.8801 55.1643 12.9706 55.48C13.0611 55.7958 13.213 56.0906 13.4174 56.3476C13.6219 56.6046 13.875 56.8189 14.1623 56.9781C14.4495 57.1373 14.7654 57.2384 15.0917 57.2756C15.418 57.3128 15.7485 57.2853 16.0642 57.1948C16.3799 57.1042 16.6747 56.9524 16.9318 56.7479C17.1888 56.5435 17.403 56.2904 17.5623 56.0031C21.4562 48.9614 23.4991 41.0466 23.4998 33C23.4998 29.6848 24.8167 26.5054 27.1609 24.1612C29.5051 21.817 32.6846 20.5 35.9998 20.5ZM35.9998 0.499993C32.3093 0.495552 28.6452 1.12121 25.1654 2.34999C24.5514 2.57955 24.0522 3.04105 23.7751 3.63512C23.4981 4.22919 23.4655 4.90829 23.6843 5.52618C23.9031 6.14407 24.3558 6.6513 24.945 6.93865C25.5341 7.226 26.2125 7.27047 26.8341 7.06249C30.9828 5.59967 35.4217 5.15283 39.7786 5.75946C44.1356 6.36608 48.2836 8.00849 51.8748 10.549C55.466 13.0894 58.3958 16.4539 60.4185 20.3603C62.4412 24.2666 63.4978 28.601 63.4998 33C63.5028 39.5428 62.7754 46.0655 61.331 52.4469C61.1842 53.092 61.2991 53.769 61.6506 54.3296C62.002 54.8902 62.5614 55.2886 63.206 55.4375C63.3884 55.4797 63.5751 55.5007 63.7623 55.5C64.3291 55.4999 64.879 55.3071 65.3219 54.9534C65.7648 54.5996 66.0744 54.1059 66.1998 53.5531C67.7269 46.8087 68.4983 39.9152 68.4998 33C68.4907 24.3833 65.0637 16.122 58.9707 10.0291C52.8777 3.93611 44.6165 0.509092 35.9998 0.499993ZM17.6685 12.5062C17.9133 12.2873 18.1126 12.0223 18.255 11.7263C18.3973 11.4304 18.48 11.1093 18.4983 10.7814C18.5166 10.4535 18.4701 10.1252 18.3615 9.81525C18.2529 9.5053 18.0843 9.21978 17.8654 8.97499C17.6465 8.7302 17.3815 8.53093 17.0855 8.38855C16.7896 8.24618 16.4685 8.16349 16.1405 8.14521C15.8126 8.12693 15.4843 8.17341 15.1744 8.28201C14.8645 8.3906 14.5789 8.55918 14.3341 8.77812C10.9285 11.8282 8.20348 15.5615 6.33674 19.7349C4.47 23.9083 3.50336 28.4281 3.49978 33C3.50677 36.9548 2.65373 40.8639 0.999775 44.4562C0.862708 44.7546 0.785747 45.077 0.773286 45.4051C0.760825 45.7332 0.813108 46.0605 0.92715 46.3684C1.15747 46.9902 1.62536 47.495 2.2279 47.7719C2.83044 48.0487 3.51827 48.0748 4.14007 47.8445C4.76187 47.6142 5.26671 47.1463 5.54353 46.5437C7.49934 42.2969 8.50807 37.6755 8.49977 33C8.50309 29.1317 9.32127 25.3074 10.901 21.7764C12.4808 18.2454 14.7867 15.0867 17.6685 12.5062ZM31.5998 55.7312C31.3014 55.5942 30.979 55.5172 30.6509 55.5047C30.3228 55.4922 29.9955 55.5445 29.6876 55.6586C29.3797 55.7726 29.0973 55.9462 28.8565 56.1694C28.6157 56.3926 28.4212 56.661 28.2841 56.9594C27.6841 58.2719 27.0341 59.5812 26.3185 60.8469C26.1587 61.1342 26.0571 61.4503 26.0196 61.777C25.9821 62.1037 26.0094 62.4346 26.0999 62.7507C26.1905 63.0668 26.3426 63.362 26.5474 63.6193C26.7522 63.8765 27.0057 64.0909 27.2935 64.25C27.6631 64.4564 28.0796 64.564 28.5029 64.5625C28.9493 64.5627 29.3875 64.4434 29.7722 64.217C30.1569 63.9906 30.4739 63.6653 30.6904 63.275C31.4529 61.8969 32.1716 60.4625 32.8279 59.05C32.9655 58.7515 33.0428 58.4288 33.0556 58.1004C33.0683 57.7719 33.0161 57.4442 32.902 57.1359C32.788 56.8277 32.6142 56.545 32.3908 56.3039C32.1673 56.0629 31.8985 55.8683 31.5998 55.7312ZM35.9998 30.5C35.3367 30.5 34.7008 30.7634 34.232 31.2322C33.7632 31.7011 33.4998 32.337 33.4998 33C33.5016 37.8486 32.8937 42.6781 31.6904 47.375C31.5252 48.0169 31.6217 48.6981 31.9587 49.2689C32.2956 49.8396 32.8455 50.2532 33.4873 50.4187C33.6916 50.4706 33.9015 50.4969 34.1123 50.4969C34.6662 50.4965 35.2043 50.3121 35.6421 49.9727C36.0799 49.6334 36.3925 49.1582 36.531 48.6219C37.8412 43.517 38.5027 38.2672 38.4998 32.9969C38.4989 32.3344 38.2352 31.6993 37.7664 31.2311C37.2977 30.763 36.6623 30.5 35.9998 30.5Z" fill="#07F52C"/>
</svg>
