<?xml version="1.0" encoding="UTF-8"?><svg id="Layer_2" xmlns="http://www.w3.org/2000/svg" viewBox="0 0 221.29 64.67"><defs><style>.cls-1{fill:#040404;}</style></defs><g id="Layer_5"><g><path class="cls-1" d="m0,25.83C0,10.95,10.23,1.79,25.97,1.79s25.97,9.16,25.97,24.04-10.02,24.47-25.97,24.47S0,41.28,0,25.83Zm35.99.07c0-8.23-4.36-12.38-10.02-12.38s-10.02,4.15-10.02,12.38,4.36,12.66,10.02,12.66,10.02-4.15,10.02-12.66Z"/><path class="cls-1" d="m55.81,14.24h14.17l-.43,9.87h.14c1.43-6.3,4.79-10.44,11.59-10.44,7.44,0,11.02,4.58,11.02,14.09,0,2.57-.21,6.15-.36,8.16h-12.16c.14-1.65.14-3.58.14-4.65,0-4.08-1.5-5.72-4.15-5.72-3.51,0-5.79,2.93-5.79,9.23v14.81h-14.17V14.24Z"/><path class="cls-1" d="m109.97,42.78h-.07c.07,2.07.21,5.01.36,6.8h-14.16V0h14.16v14.02c0,1.86-.14,4.79-.21,6.51h.14c1.43-4.29,5.58-6.87,11.66-6.87,9.59,0,15.31,6.22,15.31,17.53,0,12.45-6.08,18.96-15.38,18.96-6.51,0-10.44-3-11.8-7.37Zm13.02-11.16c0-5.01-2.08-7.87-5.94-7.87-4.22,0-6.8,2.72-6.8,7.8v1.86c.14,4.29,2.65,6.65,6.8,6.65,3.72,0,5.94-2.86,5.94-8.44Z"/><path class="cls-1" d="m143.59,63.67v-9.73c1.15.29,2.93.5,4.87.5,3.15,0,4.44-1.29,5.79-4.87h-3l-14.02-35.34h16.24l7.01,21.18h.14l6.3-21.18h13.16l-12.23,36.42c-3.43,10.37-8.08,14.02-16.46,14.02-3.58,0-6.51-.57-7.8-1Z"/><path class="cls-1" d="m207.13,42.64h-.07c-1.15,4.29-4.51,7.51-10.95,7.51-10.02,0-15.88-7.15-15.88-18.6,0-10.59,6.44-17.89,16.17-17.89,6.01,0,9.37,2.29,10.8,6.08h.07v-5.51h14.02v49.51h-14.16v-21.1Zm0-10.23v-2.22c-.07-3.79-2.5-6.44-6.51-6.44-3.79,0-6.3,2.86-6.3,7.87,0,5.44,2.43,8.44,6.15,8.44,4.01,0,6.65-2.86,6.65-7.66Z"/></g></g></svg>