<?xml version="1.0" encoding="utf-8"?>
<!-- Generator: Adobe Illustrator 27.7.0, SVG Export Plug-In . SVG Version: 6.00 Build 0)  -->
<svg version="1.1" id="Layer_1" xmlns="http://www.w3.org/2000/svg" xmlns:xlink="http://www.w3.org/1999/xlink" x="0px" y="0px"
	 viewBox="0 0 24 24" style="enable-background:new 0 0 24 24;" xml:space="preserve">
<style type="text/css">
	.st0{fill:#F5F5F5;}
</style>
<path class="st0" d="M18.6,8.3c-0.4,0-0.8,0.1-1.1,0.3V5.6c0-0.5-0.1-0.9-0.3-1.3c-0.2-0.4-0.5-0.7-0.9-1C15.8,3.1,15.4,3,14.9,3
	c-0.5,0-0.9,0.1-1.3,0.3c-0.2-0.6-0.6-1.1-1.1-1.4c-0.5-0.3-1.2-0.5-1.8-0.4c-0.6,0.1-1.2,0.4-1.6,0.9C8.7,2.9,8.5,3.5,8.5,4.1v0.6
	C8.1,4.6,7.8,4.5,7.4,4.5C6.7,4.5,6,4.8,5.5,5.3C5,5.8,4.8,6.4,4.8,7.1v7.1c0,2.2,0.9,4.3,2.4,5.8c1.5,1.5,3.6,2.4,5.8,2.4
	c2.2,0,4.3-0.9,5.8-2.4c1.5-1.5,2.4-3.6,2.4-5.8v-3.4c0-0.7-0.3-1.4-0.8-1.9C20,8.5,19.3,8.3,18.6,8.3z M19.8,14.3
	c0,1.8-0.7,3.5-2,4.8c-1.3,1.3-3,2-4.8,2s-3.5-0.7-4.8-2c-1.3-1.3-2-3-2-4.8V7.1c0-0.3,0.1-0.6,0.3-0.8C6.8,6.1,7.1,6,7.4,6
	S8,6.1,8.2,6.3c0.2,0.2,0.3,0.5,0.3,0.8v3.4c0,0.2,0.1,0.4,0.2,0.5c0.1,0.1,0.3,0.2,0.5,0.2s0.4-0.1,0.5-0.2
	c0.1-0.1,0.2-0.3,0.2-0.5V4.1c0-0.3,0.1-0.6,0.3-0.8C10.5,3.1,10.8,3,11.1,3c0.3,0,0.6,0.1,0.8,0.3c0.2,0.2,0.3,0.5,0.3,0.8v5.6
	c0,0.2,0.1,0.4,0.2,0.5c0.1,0.1,0.3,0.2,0.5,0.2s0.4-0.1,0.5-0.2c0.1-0.1,0.2-0.3,0.2-0.5V5.6c0-0.3,0.1-0.6,0.3-0.8
	c0.2-0.2,0.5-0.3,0.8-0.3s0.6,0.1,0.8,0.3C15.9,5,16,5.3,16,5.6v5.6c0,0.2,0.1,0.4,0.2,0.5c0.1,0.1,0.3,0.2,0.5,0.2s0.4-0.1,0.5-0.2
	c0.1-0.1,0.2-0.3,0.2-0.5v-0.4c0-0.3,0.1-0.6,0.3-0.8c0.2-0.2,0.5-0.3,0.8-0.3s0.6,0.1,0.8,0.3c0.2,0.2,0.3,0.5,0.3,0.8V14.3z
	 M14.1,15.8c0,0.2-0.1,0.4-0.2,0.6c-0.1,0.2-0.3,0.3-0.5,0.4c-0.2,0.1-0.4,0.1-0.6,0.1c-0.2,0-0.4-0.2-0.6-0.3
	c-0.2-0.2-0.3-0.4-0.3-0.6c0-0.2,0-0.4,0.1-0.6c0.1-0.2,0.2-0.4,0.4-0.5c0.2-0.1,0.4-0.2,0.6-0.2c0.3,0,0.6,0.1,0.8,0.3
	C14,15.2,14.1,15.5,14.1,15.8z M13,12c-3.4,0-5.1,3.3-5.2,3.4c-0.1,0.1-0.1,0.2-0.1,0.3c0,0.1,0,0.2,0.1,0.3
	c0.1,0.1,1.7,3.4,5.2,3.4c3.4,0,5.1-3.3,5.2-3.4c0.1-0.1,0.1-0.2,0.1-0.3c0-0.1,0-0.2-0.1-0.3C18.1,15.3,16.4,12,13,12z M13,18
	c-1.9,0-3.2-1.5-3.6-2.2c0.5-0.7,1.7-2.2,3.6-2.2s3.2,1.5,3.6,2.2C16.2,16.5,14.9,18,13,18z"/>
</svg>
