<svg width="40" height="40" viewBox="0 0 40 40" fill="none" xmlns="http://www.w3.org/2000/svg">
<g clip-path="url(#clip0_111_1684)">
<path d="M20 40C31.0457 40 40 31.0457 40 20C40 8.9543 31.0457 0 20 0C8.9543 0 0 8.9543 0 20C0 31.0457 8.9543 40 20 40Z" fill="#F5F5F5"/>
<path d="M14.1297 10.9375C14.9921 10.9375 15.7793 11.0143 16.4913 11.1663C17.2033 11.3183 17.8113 11.5679 18.3185 11.9151C18.8257 12.2623 19.2193 12.7231 19.4993 13.2991C19.7793 13.8751 19.9185 14.5855 19.9185 15.4319C19.9185 16.3455 19.7105 17.1071 19.2961 17.7167C18.8817 18.3263 18.2673 18.8255 17.4561 19.2143C18.5729 19.5359 19.4065 20.0991 19.9569 20.9023C20.5073 21.7055 20.7825 22.6751 20.7825 23.8095C20.7825 24.7231 20.6049 25.5151 20.2497 26.1839C19.8945 26.8527 19.4161 27.3983 18.8145 27.8207C18.2129 28.2447 17.5281 28.5567 16.7585 28.7599C15.9841 28.9631 15.1857 29.0655 14.3857 29.0639H5.6001V10.9375H14.1297ZM13.6225 18.2735C14.3329 18.2735 14.9169 18.1039 15.3745 17.7663C15.8321 17.4271 16.0609 16.8783 16.0593 16.1167C16.0593 15.6943 15.9825 15.3471 15.8305 15.0767C15.6785 14.8063 15.4753 14.5935 15.2209 14.4415C14.9665 14.2895 14.6753 14.1839 14.3457 14.1247C14.0065 14.0655 13.6625 14.0351 13.3169 14.0367H9.5873V18.2767L13.6225 18.2735ZM13.8513 25.9647C14.2273 25.9663 14.6017 25.9279 14.9681 25.8511C15.3233 25.7743 15.6369 25.6479 15.9073 25.4703C16.1777 25.2927 16.3937 25.0511 16.5553 24.7471C16.7153 24.4431 16.7969 24.0527 16.7969 23.5791C16.7969 22.6495 16.5345 21.9839 16.0097 21.5871C15.4849 21.1887 14.7905 20.9903 13.9281 20.9903H9.5873V25.9663L13.8513 25.9647ZM25.7969 25.5839C26.3377 26.1087 27.1169 26.3711 28.1329 26.3711C28.8609 26.3711 29.4865 26.1887 30.0113 25.8255C30.5361 25.4623 30.8577 25.0767 30.9761 24.6703H34.1489C33.6417 26.2447 32.8625 27.3695 31.8129 28.0463C30.7633 28.7231 29.4945 29.0623 28.0049 29.0623C26.9729 29.0623 26.0417 28.8975 25.2129 28.5679C24.3841 28.2383 23.6817 27.7679 23.1057 27.1583C22.5297 26.5487 22.0849 25.8223 21.7729 24.9759C21.4609 24.1295 21.3041 23.1983 21.3041 22.1839C21.3041 21.2031 21.4641 20.2895 21.7857 19.4431C22.1073 18.5967 22.5649 17.8655 23.1569 17.2479C23.7489 16.6303 24.4561 16.1439 25.2769 15.7887C26.0977 15.4335 27.0081 15.2559 28.0065 15.2559C29.1233 15.2559 30.0961 15.4719 30.9265 15.9039C31.7553 16.3359 32.4369 16.9151 32.9697 17.6431C33.5025 18.3711 33.8881 19.1999 34.1249 20.1311C34.3617 21.0623 34.4465 22.0351 34.3793 23.0511H24.9105C24.9601 24.2143 25.2561 25.0607 25.7969 25.5839ZM29.8721 18.6799C29.4401 18.2063 28.7841 17.9695 27.9041 17.9695C27.3281 17.9695 26.8497 18.0671 26.4705 18.2607C26.0897 18.4559 25.7857 18.6959 25.5569 18.9839C25.3281 19.2719 25.1681 19.5759 25.0753 19.8975C24.9825 20.2191 24.9265 20.5071 24.9105 20.7599H30.7745C30.6033 19.8479 30.3025 19.1535 29.8721 18.6799ZM24.2929 11.8575H31.6193V13.8895H24.2929V11.8575Z" fill="#040404"/>
</g>
<defs>
<clipPath id="clip0_111_1684">
<rect width="40" height="40" fill="white"/>
</clipPath>
</defs>
</svg>
