<svg width="40" height="40" viewBox="0 0 40 40" fill="none" xmlns="http://www.w3.org/2000/svg">
<circle cx="20" cy="20" r="20" fill="#F5F5F5"/>
<g clip-path="url(#clip0_111_1687)">
<path d="M6 20C6 17.4613 6.62535 15.1187 7.876 12.972C9.12668 10.8253 10.8254 9.12668 12.972 7.876C15.1187 6.62532 17.4614 6 20 6C22.5387 6 24.8814 6.62532 27.028 7.876C29.1747 9.12668 30.8734 10.8253 32.124 12.972C33.3747 15.1187 34 17.4613 34 20C34 22.5387 33.3747 24.8813 32.124 27.028C30.8734 29.1747 29.1747 30.8733 27.028 32.124C24.8814 33.3747 22.5387 34 20 34C17.4614 34 15.1187 33.3747 12.972 32.124C10.8254 30.8733 9.12668 29.1747 7.876 27.028C6.62535 24.8813 6 22.5387 6 20ZM8.324 20C8.324 22.912 9.304 25.4787 11.264 27.7C12.16 25.9453 13.5787 24.2747 15.52 22.688C17.4614 21.1013 19.356 20.1027 21.204 19.692C20.924 19.0387 20.6534 18.4507 20.392 17.928C17.1814 18.9547 13.7094 19.468 9.976 19.468C9.248 19.468 8.70668 19.4587 8.352 19.44C8.352 19.5147 8.34735 19.608 8.338 19.72C8.32868 19.832 8.324 19.9253 8.324 20ZM8.688 17.116C9.09868 17.1533 9.70535 17.172 10.508 17.172C13.6254 17.172 16.584 16.752 19.384 15.912C17.9654 13.392 16.4067 11.292 14.708 9.612C13.2334 10.3587 11.9687 11.3947 10.914 12.72C9.85935 14.0453 9.11735 15.5107 8.688 17.116ZM12.86 29.212C14.9694 30.8547 17.3494 31.676 20 31.676C21.3814 31.676 22.7534 31.4147 24.116 30.892C23.7427 27.7 23.0147 24.6107 21.932 21.624C20.2147 21.9973 18.4834 22.94 16.738 24.452C14.9927 25.964 13.7 27.5507 12.86 29.212ZM17.144 8.716C18.7867 10.4147 20.308 12.5333 21.708 15.072C24.2467 14.008 26.16 12.6547 27.448 11.012C25.2827 9.22 22.8 8.324 20 8.324C19.048 8.324 18.096 8.45468 17.144 8.716ZM22.716 17.06C22.996 17.6573 23.3134 18.4133 23.668 19.328C25.0494 19.1973 26.552 19.132 28.176 19.132C29.3334 19.132 30.4814 19.16 31.62 19.216C31.4707 16.6773 30.556 14.4187 28.876 12.44C27.6627 14.2507 25.6094 15.7907 22.716 17.06ZM24.368 21.288C25.32 24.0507 25.964 26.888 26.3 29.8C27.7747 28.848 28.9787 27.6253 29.912 26.132C30.8454 24.6387 31.4054 23.024 31.592 21.288C30.2294 21.1947 28.988 21.148 27.868 21.148C26.8414 21.148 25.6747 21.1947 24.368 21.288Z" fill="#040404"/>
</g>
<defs>
<clipPath id="clip0_111_1687">
<rect width="28" height="28" fill="white" transform="translate(6 6)"/>
</clipPath>
</defs>
</svg>
