<svg width="40" height="40" viewBox="0 0 40 40" fill="none" xmlns="http://www.w3.org/2000/svg">
<g clip-path="url(#clip0_111_1691)">
<path d="M20 40C31.0457 40 40 31.0457 40 20C40 8.95431 31.0457 0 20 0C8.95431 0 0 8.95431 0 20C0 31.0457 8.95431 40 20 40Z" fill="#F5F5F5"/>
<path d="M19.9998 25.5999C23.0961 25.5999 25.6061 23.0927 25.6061 19.9999C25.6061 16.9071 23.0961 14.3999 19.9998 14.3999C16.9036 14.3999 14.3936 16.9071 14.3936 19.9999C14.3936 23.0927 16.9036 25.5999 19.9998 25.5999Z" fill="#040404"/>
<mask id="mask0_111_1691" style="mask-type:luminance" maskUnits="userSpaceOnUse" x="24" y="14" width="12" height="12">
<path d="M35.12 14.3999H24.7322V25.7154H35.12V14.3999Z" fill="white"/>
</mask>
<g mask="url(#mask0_111_1691)">
<path d="M29.5138 25.5999C32.61 25.5999 35.1201 23.0927 35.1201 19.9999C35.1201 16.9071 32.61 14.3999 29.5138 14.3999C26.4175 14.3999 23.9075 16.9071 23.9075 19.9999C23.9075 23.0927 26.4175 25.5999 29.5138 25.5999Z" fill="#040404"/>
</g>
<mask id="mask1_111_1691" style="mask-type:luminance" maskUnits="userSpaceOnUse" x="4" y="14" width="12" height="12">
<path d="M15.2677 14.3999H4.87988V25.7154H15.2677V14.3999Z" fill="white"/>
</mask>
<g mask="url(#mask1_111_1691)">
<path d="M10.4862 25.5999C13.5824 25.5999 16.0925 23.0927 16.0925 19.9999C16.0925 16.9071 13.5824 14.3999 10.4862 14.3999C7.38991 14.3999 4.87988 16.9071 4.87988 19.9999C4.87988 23.0927 7.38991 25.5999 10.4862 25.5999Z" fill="#040404"/>
</g>
<path fill-rule="evenodd" clip-rule="evenodd" d="M15.243 22.965C14.7047 22.1052 14.3936 21.0889 14.3936 20C14.3936 18.9111 14.7047 17.8948 15.243 17.0349C15.7813 17.8948 16.0924 18.9111 16.0924 20C16.0924 21.0889 15.7813 22.1052 15.243 22.965Z" fill="#F5F5F5"/>
<path fill-rule="evenodd" clip-rule="evenodd" d="M24.7567 17.0349C25.295 17.8948 25.6061 18.9111 25.6061 20C25.6061 21.0889 25.295 22.1052 24.7567 22.965C24.2184 22.1052 23.9072 21.0889 23.9072 20C23.9072 18.9111 24.2184 17.8948 24.7567 17.0349Z" fill="#F5F5F5"/>
</g>
<defs>
<clipPath id="clip0_111_1691">
<rect width="40" height="40" fill="white"/>
</clipPath>
</defs>
</svg>
