<svg width="96" height="96" viewBox="0 0 96 96" fill="none" xmlns="http://www.w3.org/2000/svg">
<g clip-path="url(#clip0_111_1667)">
<path d="M48 96C74.5097 96 96 74.5097 96 48C96 21.4903 74.5097 0 48 0C21.4903 0 0 21.4903 0 48C0 74.5097 21.4903 96 48 96Z" fill="#040404"/>
<path d="M48 5.76C71.2877 5.76 90.24 24.7123 90.24 48C90.24 71.2877 71.2877 90.24 48 90.24C24.7123 90.24 5.76 71.2877 5.76 48C5.76 24.7123 24.7123 5.76 48 5.76ZM48 0C21.4916 0 0 21.4916 0 48C0 74.5084 21.4916 96 48 96C74.5084 96 96 74.5084 96 48C96 21.4916 74.5084 0 48 0Z" fill="#F5F5F5"/>
<path d="M61.6724 27.3678C61.6724 35.0246 55.4479 41.2568 47.7988 41.2568C32.8956 41.4736 20.8414 53.6749 20.8414 68.6323C20.8414 68.8568 20.8414 69.0736 20.8569 69.3059C16.2427 63.4375 13.4866 56.0362 13.4866 47.9923C13.4866 28.9781 28.8543 13.5639 47.8453 13.4788C48.3563 13.4788 48.8595 13.5097 49.3627 13.5562C49.6104 13.5871 49.8582 13.6259 50.0982 13.6568C50.284 13.6878 50.4775 13.7265 50.6634 13.7575C56.9343 15.0891 61.6724 20.671 61.6724 27.3523V27.3678Z" fill="#F5F5F5"/>
<path d="M82.5136 48C82.5136 67.0142 67.1459 82.4284 48.1549 82.5135C47.6439 82.5135 47.1407 82.4826 46.6375 82.4361C46.3897 82.4051 46.142 82.3664 45.902 82.3355C45.7007 82.3045 45.5072 82.2658 45.3136 82.2348C45.1278 82.1961 44.9265 82.1497 44.733 82.1032C38.7562 80.5548 34.3201 75.1122 34.3201 68.6477C34.3201 60.9832 40.5446 54.7587 48.1936 54.7587C63.0968 54.5342 75.151 42.3406 75.151 27.3832C75.151 27.1587 75.151 26.9264 75.1356 26.7019C79.7497 32.5703 82.5059 39.9716 82.5059 48.0155L82.5136 48Z" fill="#F5F5F5"/>
<path d="M47.8916 68.2605C34.5677 68.2605 23.8451 57.1586 19.8503 52.3818C17.698 49.8115 17.698 46.0799 19.8503 43.5096C23.8451 38.7328 34.5677 27.6309 47.8916 27.6309C61.2154 27.6309 71.938 38.7328 75.9329 43.5096C78.0774 46.0799 78.0774 49.8115 75.9329 52.3818C71.938 57.1586 61.2154 68.2605 47.8916 68.2605ZM28.5445 47.9457C32.0903 51.8012 39.6774 58.7999 47.8916 58.7999C56.1058 58.7999 63.6851 51.8012 67.2387 47.9457C63.6851 44.0902 56.1058 37.0915 47.8916 37.0915C39.6774 37.0915 32.098 44.0902 28.5445 47.9457Z" fill="#040404"/>
<path d="M67.2386 47.9457C63.6928 51.7935 56.1135 58.7999 47.8993 58.7999C39.6851 58.7999 32.098 51.8012 28.5444 47.9457C32.0902 44.0825 39.6851 37.0916 47.8993 37.0916C56.1135 37.0916 63.6928 44.0825 67.2386 47.9457Z" fill="#F5F5F5"/>
<path d="M48.0929 55.1457C51.9624 55.1457 55.0993 52.0088 55.0993 48.1393C55.0993 44.2697 51.9624 41.1328 48.0929 41.1328C44.2233 41.1328 41.0864 44.2697 41.0864 48.1393C41.0864 52.0088 44.2233 55.1457 48.0929 55.1457Z" fill="#040404"/>
<path d="M43.3704 46.0955C44.8498 46.0955 46.0491 44.8962 46.0491 43.4167C46.0491 41.9373 44.8498 40.738 43.3704 40.738C41.8909 40.738 40.6917 41.9373 40.6917 43.4167C40.6917 44.8962 41.8909 46.0955 43.3704 46.0955Z" fill="#F5F5F5"/>
</g>
<defs>
<clipPath id="clip0_111_1667">
<rect width="96" height="96" fill="white"/>
</clipPath>
</defs>
</svg>
