<?xml version="1.0" encoding="utf-8"?>
<!-- Generator: Adobe Illustrator 27.7.0, SVG Export Plug-In . SVG Version: 6.00 Build 0)  -->
<svg version="1.1" id="Layer_1" xmlns="http://www.w3.org/2000/svg" xmlns:xlink="http://www.w3.org/1999/xlink" x="0px" y="0px"
	 viewBox="0 0 24 24" style="enable-background:new 0 0 24 24;" xml:space="preserve">
<style type="text/css">
	.st0{fill:#F5F5F5;}
</style>
<path class="st0" d="M13,2c-2.3,0-4.4,0.9-6,2.5c-1.6,1.6-2.5,3.8-2.5,6c0,2.1,1.1,4.9,3,7.4c1.9,2.5,4,4,5.6,4s3.7-1.5,5.6-4
	c1.9-2.5,3-5.3,3-7.4c0-2.3-0.9-4.4-2.5-6C17.4,2.9,15.3,2,13,2z M17.4,17.1c-1.5,2.1-3.3,3.4-4.4,3.4s-2.9-1.4-4.4-3.4
	c-1.7-2.2-2.7-4.7-2.7-6.5c0-1.9,0.8-3.7,2.1-5s3.1-2.1,5-2.1s3.7,0.8,5,2.1c1.3,1.3,2.1,3.1,2.1,5C20.1,12.4,19.1,14.9,17.4,17.1z
	 M12.3,12.7c0-0.9-0.4-1.8-1-2.5c-0.7-0.7-1.6-1-2.5-1c-0.4,0-0.7,0.2-1,0.4c-0.3,0.3-0.4,0.6-0.4,1c0,0.9,0.4,1.8,1,2.5
	c0.7,0.7,1.6,1,2.5,1c0.4,0,0.7-0.1,1-0.4C12.1,13.5,12.3,13.1,12.3,12.7z M8.7,10.6c0.6,0,1.1,0.2,1.5,0.6c0.4,0.4,0.6,0.9,0.6,1.5
	c-0.6,0-1.1-0.2-1.5-0.6C9,11.7,8.7,11.1,8.7,10.6z M17.3,9.2c-0.9,0-1.8,0.4-2.5,1c-0.7,0.7-1,1.6-1,2.5c0,0.4,0.1,0.7,0.4,1
	c0.3,0.3,0.6,0.4,1,0.4c0.5,0,0.9-0.1,1.4-0.3c0.4-0.2,0.8-0.4,1.2-0.8c0.3-0.3,0.6-0.7,0.8-1.2c0.2-0.4,0.3-0.9,0.3-1.4
	c0-0.4-0.1-0.7-0.4-1C18,9.3,17.6,9.2,17.3,9.2z M15.1,12.7c0-0.6,0.2-1.1,0.6-1.5c0.4-0.4,0.9-0.6,1.5-0.6c0,0.6-0.2,1.1-0.6,1.5
	C16.2,12.5,15.7,12.7,15.1,12.7z M15.1,17c0,0.2-0.1,0.4-0.2,0.5c-0.1,0.1-0.3,0.2-0.5,0.2h-2.8c-0.2,0-0.4-0.1-0.5-0.2
	c-0.1-0.1-0.2-0.3-0.2-0.5c0-0.2,0.1-0.4,0.2-0.5c0.1-0.1,0.3-0.2,0.5-0.2h2.8c0.2,0,0.4,0.1,0.5,0.2C15.1,16.6,15.1,16.8,15.1,17z"
	/>
</svg>
