<?xml version="1.0" encoding="utf-8"?>
<!-- Generator: Adobe Illustrator 27.7.0, SVG Export Plug-In . SVG Version: 6.00 Build 0)  -->
<svg version="1.1" id="Layer_1" xmlns="http://www.w3.org/2000/svg" xmlns:xlink="http://www.w3.org/1999/xlink" x="0px" y="0px"
	 viewBox="0 0 24 24" style="enable-background:new 0 0 24 24;" xml:space="preserve">
<style type="text/css">
	.st0{fill:#07F52C;}
</style>
<path class="st0" d="M13,1.5c-2.4,0-4.7,1-6.4,2.6C5,5.8,4,8.1,4,10.5c0,2.2,1.2,5.2,3.2,7.8c2,2.6,4.2,4.2,5.8,4.2s3.9-1.6,5.8-4.2
	c2-2.6,3.2-5.5,3.2-7.8c0-2.4-1-4.7-2.6-6.4C17.7,2.5,15.4,1.5,13,1.5z M7,10.9c0-0.3,0.1-0.6,0.3-0.8c0.2-0.2,0.5-0.3,0.8-0.3
	c0.9,0,1.8,0.4,2.4,1c0.6,0.6,1,1.5,1,2.4c0,0.3-0.1,0.6-0.3,0.8c-0.2,0.2-0.5,0.3-0.8,0.3c-0.9,0-1.8-0.4-2.4-1
	C7.4,12.6,7,11.8,7,10.9z M14.5,18.8h-3c-0.2,0-0.4-0.1-0.5-0.2c-0.1-0.1-0.2-0.3-0.2-0.5s0.1-0.4,0.2-0.5c0.1-0.1,0.3-0.2,0.5-0.2
	h3c0.2,0,0.4,0.1,0.5,0.2c0.1,0.1,0.2,0.3,0.2,0.5s-0.1,0.4-0.2,0.5C14.9,18.7,14.7,18.8,14.5,18.8z M15.6,14.2
	c-0.3,0-0.6-0.1-0.8-0.3c-0.2-0.2-0.3-0.5-0.3-0.8c0-0.9,0.4-1.8,1-2.4c0.6-0.6,1.5-1,2.4-1c0.3,0,0.6,0.1,0.8,0.3
	c0.2,0.2,0.3,0.5,0.3,0.8c0,0.4-0.1,0.9-0.3,1.3c-0.2,0.4-0.4,0.8-0.7,1.1c-0.3,0.3-0.7,0.6-1.1,0.7C16.5,14.2,16.1,14.2,15.6,14.2z
	"/>
</svg>
