<svg width="32" height="32" viewBox="0 0 32 32" fill="none" xmlns="http://www.w3.org/2000/svg">
<path d="M10.9387 7.06126C10.6569 6.77946 10.4986 6.39727 10.4986 5.99876C10.4986 5.60024 10.6569 5.21805 10.9387 4.93626C11.2205 4.65446 11.6027 4.49615 12.0012 4.49615C12.3997 4.49615 12.7819 4.65446 13.0637 4.93626L23.0637 14.9363C23.2035 15.0756 23.3145 15.2412 23.3902 15.4235C23.4659 15.6059 23.5049 15.8013 23.5049 15.9988C23.5049 16.1962 23.4659 16.3917 23.3902 16.574C23.3145 16.7563 23.2035 16.9219 23.0637 17.0613L13.0637 27.0613C12.7819 27.343 12.3997 27.5014 12.0012 27.5014C11.6027 27.5014 11.2205 27.343 10.9387 27.0613C10.6569 26.7795 10.4986 26.3973 10.4986 25.9988C10.4986 25.6002 10.6569 25.218 10.9387 24.9363L19.875 16L10.9387 7.06126Z" fill="#F5F5F5"/>
</svg>
